<svg width="67" height="63" viewBox="0 0 67 63" fill="none" xmlns="http://www.w3.org/2000/svg">
<path d="M66.3536 59.3531C66.5488 59.1578 66.5488 58.8412 66.3536 58.646L63.1716 55.464C62.9763 55.2687 62.6597 55.2687 62.4645 55.464C62.2692 55.6592 62.2692 55.9758 62.4645 56.1711L65.2929 58.9995L62.4645 61.8279C62.2692 62.0232 62.2692 62.3398 62.4645 62.535C62.6597 62.7303 62.9763 62.7303 63.1716 62.535L66.3536 59.3531ZM32.5051 46.1474L32.0702 46.3943L32.5051 46.1474ZM32.5052 12.0403L32.9683 11.8518L32.5052 12.0403ZM1 2.15399C1.11927 2.63956 1.11925 2.63956 1.11923 2.63957C1.11923 2.63957 1.11921 2.63957 1.11921 2.63957C1.11919 2.63958 1.11918 2.63958 1.11918 2.63958C1.11917 2.63958 1.11919 2.63958 1.11922 2.63957C1.11929 2.63955 1.11944 2.63952 1.11968 2.63946C1.12015 2.63934 1.12096 2.63915 1.12209 2.63887C1.12437 2.63832 1.12797 2.63745 1.13287 2.63627C1.14269 2.63391 1.15774 2.63032 1.17789 2.62558C1.21818 2.61611 1.27886 2.60207 1.35882 2.58418C1.51875 2.54839 1.75578 2.49718 2.06113 2.43626L1.8655 1.45559C1.55209 1.51811 1.30747 1.57093 1.14043 1.60832C1.05691 1.62701 0.99277 1.64184 0.949124 1.6521C0.9273 1.65723 0.910598 1.66121 0.899154 1.66396C0.893432 1.66534 0.889025 1.6664 0.885949 1.66715C0.884411 1.66753 0.883206 1.66782 0.882336 1.66803C0.881901 1.66814 0.88155 1.66822 0.881283 1.66829C0.88115 1.66832 0.881037 1.66835 0.880946 1.66837C0.8809 1.66838 0.880859 1.66839 0.880824 1.6684C0.880806 1.66841 0.880784 1.66841 0.880775 1.66841C0.880754 1.66842 0.880734 1.66842 1 2.15399ZM4.00454 2.09441C4.58951 2.00404 5.24841 1.91287 5.96728 1.82997L5.85272 0.836553C5.1201 0.921038 4.44845 1.01397 3.85186 1.10614L4.00454 2.09441ZM7.92947 1.64149C8.55903 1.59323 9.21731 1.55464 9.8978 1.52994L9.86154 0.530603C9.16672 0.555819 8.49501 0.595206 7.85303 0.64442L7.92947 1.64149ZM11.8726 1.50066C12.5171 1.50533 13.1744 1.52447 13.8397 1.56111L13.8947 0.562623C13.2124 0.525048 12.5392 0.505468 11.8798 0.500685L11.8726 1.50066ZM15.8012 1.72069C16.4478 1.79104 17.0971 1.88005 17.7453 1.99035L17.9131 1.00452C17.2438 0.890629 16.5745 0.79892 15.9094 0.726554L15.8012 1.72069ZM19.6649 2.38359C20.2983 2.53666 20.9263 2.71293 21.5449 2.91484L21.8552 1.9642C21.2101 1.75363 20.5569 1.57035 19.8998 1.41157L19.6649 2.38359ZM23.3683 3.59977C23.9643 3.85539 24.5468 4.139 25.1121 4.45303L25.5977 3.57886C25.0009 3.24734 24.3877 2.94892 23.7625 2.68074L23.3683 3.59977ZM26.7487 5.48604C27.2694 5.85843 27.7697 6.2629 28.2461 6.70185L28.9237 5.96643C28.4158 5.49844 27.8833 5.06809 27.3305 4.67269L26.7487 5.48604ZM29.576 8.0958C29.9814 8.57999 30.3625 9.09803 30.7159 9.65216L31.559 9.11438C31.1822 8.52366 30.7756 7.97085 30.3428 7.45385L29.576 8.0958ZM31.6482 11.336C31.7861 11.6252 31.9175 11.9227 32.0421 12.2288L32.9683 11.8518C32.8365 11.5279 32.6972 11.2125 32.5508 10.9056L31.6482 11.336ZM32.0421 12.2288C32.1611 12.5212 32.2699 12.8144 32.369 13.1084L33.3166 12.7889C33.211 12.4758 33.0951 12.1634 32.9683 11.8518L32.0421 12.2288ZM32.8598 14.9175C32.9884 15.5334 33.0806 16.1527 33.141 16.7753L34.1363 16.6787C34.0726 16.0223 33.9752 15.3668 33.8387 14.7131L32.8598 14.9175ZM33.2323 18.6604C33.2341 19.2894 33.209 19.9212 33.1619 20.5554L34.1591 20.6294C34.2079 19.9725 34.2341 19.315 34.2323 18.6576L33.2323 18.6604ZM32.9616 22.4496C32.877 23.0783 32.7758 23.7084 32.6629 24.3397L33.6472 24.5159C33.7623 23.873 33.8658 23.2284 33.9526 22.5829L32.9616 22.4496ZM32.2956 26.2258C32.1649 26.8541 32.0275 27.4823 31.8879 28.1107L32.8641 28.3275C33.0041 27.6973 33.1426 27.0641 33.2747 26.4294L32.2956 26.2258ZM31.4666 30.0004C31.3264 30.6345 31.1889 31.2683 31.0594 31.9004L32.0391 32.101C32.1671 31.4762 32.3033 30.8481 32.443 30.2164L31.4666 30.0004ZM30.6959 33.8164C30.5844 34.4649 30.4869 35.1118 30.409 35.7562L31.4018 35.8761C31.4773 35.2512 31.5723 34.6211 31.6814 33.9858L30.6959 33.8164ZM30.2383 37.7193C30.2053 38.3828 30.1999 39.0435 30.2288 39.7003L31.2278 39.6564C31.2005 39.0344 31.2054 38.4051 31.237 37.7689L30.2383 37.7193ZM30.4287 41.682C30.535 42.3374 30.6833 42.9876 30.8804 43.6313L31.8366 43.3386C31.6536 42.7409 31.5153 42.1353 31.4158 41.5219L30.4287 41.682ZM31.606 45.5024C31.7481 45.8017 31.9026 46.099 32.0702 46.3943L32.9399 45.9006C32.7843 45.6265 32.641 45.3508 32.5093 45.0734L31.606 45.5024ZM32.0702 46.3943C32.2471 46.7057 32.4345 47.0097 32.6319 47.3064L33.4644 46.7524C33.2798 46.475 33.1048 46.1911 32.9399 45.9006L32.0702 46.3943ZM33.9309 48.9998C34.3966 49.5315 34.8964 50.0357 35.4254 50.5138L36.096 49.7719C35.5939 49.3182 35.1217 48.8416 34.6832 48.3409L33.9309 48.9998ZM37.0694 51.8525C37.6326 52.2671 38.2189 52.6587 38.8239 53.0287L39.3456 52.1756C38.7632 51.8194 38.2008 51.4436 37.6621 51.0471L37.0694 51.8525ZM40.6622 54.0606C41.2818 54.38 41.9154 54.6805 42.559 54.9631L42.9611 54.0474C42.3351 53.7726 41.7203 53.481 41.1204 53.1718L40.6622 54.0606ZM44.5025 55.7533C45.1564 55.9994 45.8168 56.2292 46.4798 56.4438L46.7878 55.4924C46.1386 55.2823 45.4931 55.0576 44.8547 54.8174L44.5025 55.7533ZM48.4832 57.046C49.159 57.2343 49.834 57.4081 50.5042 57.5685L50.737 56.596C50.078 56.4383 49.4149 56.2675 48.7516 56.0827L48.4832 57.046ZM52.5453 58.0207C53.2385 58.1624 53.9221 58.2905 54.5916 58.4063L54.762 57.4209C54.1019 57.3067 53.4283 57.1805 52.7456 57.041L52.5453 58.0207ZM56.6563 58.733C57.3706 58.8358 58.0611 58.9248 58.7213 59.0018L58.8372 58.0086C58.1853 57.9325 57.5037 57.8446 56.7988 57.7432L56.6563 58.733ZM60.7899 59.216C61.5528 59.2849 62.2523 59.3371 62.8743 59.3766L62.9377 58.3786C62.324 58.3396 61.6333 58.2881 60.88 58.22L60.7899 59.216ZM64.9594 59.478C65.2915 59.4887 65.5504 59.4941 65.7269 59.4968C65.8152 59.4981 65.8829 59.4988 65.9288 59.4992C65.9517 59.4993 65.9692 59.4994 65.9811 59.4995C65.9871 59.4995 65.9917 59.4995 65.9948 59.4995C65.9964 59.4995 65.9976 59.4995 65.9985 59.4995C65.9989 59.4995 65.9993 59.4995 65.9995 59.4995C65.9996 59.4995 65.9997 59.4995 65.9998 59.4995C65.9999 59.4995 65.9999 59.4995 65.9999 59.4995C65.9999 59.4995 66 59.4995 66 59.4995C66 59.4995 66 59.4995 66 58.9995C66 58.4995 66 58.4995 66 58.4995C66 58.4995 66 58.4995 66 58.4995C66 58.4995 66 58.4995 66 58.4995C66 58.4995 66 58.4995 66 58.4995C65.9999 58.4995 65.9997 58.4995 65.9994 58.4995C65.9988 58.4995 65.9979 58.4995 65.9966 58.4995C65.9941 58.4995 65.9902 58.4995 65.9848 58.4995C65.9741 58.4994 65.9579 58.4994 65.9362 58.4992C65.8928 58.4989 65.8278 58.4982 65.7422 58.4969C65.571 58.4943 65.3178 58.4891 64.9917 58.4785L64.9594 59.478Z" fill="white"/>
</svg>
