<svg width="199" height="66" viewBox="0 0 199 66" fill="none" xmlns="http://www.w3.org/2000/svg">
<path d="M198.395 62.2419C198.564 62.0238 198.525 61.7097 198.307 61.5403L194.753 58.7792C194.535 58.6098 194.221 58.6492 194.052 58.8672C193.882 59.0853 193.922 59.3994 194.14 59.5688L197.298 62.0231L194.844 65.1817C194.675 65.3997 194.714 65.7139 194.932 65.8833C195.15 66.0527 195.464 66.0133 195.634 65.7952L198.395 62.2419ZM125.767 53.9284L125.973 53.4732L125.767 53.9284ZM65.7286 11.8934L65.5428 12.3576L65.7286 11.8934ZM1 0.999512C0.969147 1.49856 0.969145 1.49856 0.969144 1.49856C0.969146 1.49856 0.969146 1.49856 0.96915 1.49856C0.969156 1.49856 0.969168 1.49856 0.969185 1.49856C0.969219 1.49856 0.969275 1.49857 0.969352 1.49857C0.969506 1.49858 0.969747 1.4986 0.970074 1.49862C0.970727 1.49866 0.971724 1.49872 0.973064 1.4988C0.975743 1.49897 0.979791 1.49922 0.985198 1.49956C0.99601 1.50024 1.01225 1.50126 1.03383 1.50263C1.07699 1.50538 1.14149 1.50952 1.22657 1.51508C1.39673 1.52622 1.64922 1.54305 1.97795 1.56582L2.04706 0.568213C1.71701 0.545349 1.46324 0.528429 1.29185 0.517217C1.20615 0.511611 1.14105 0.507432 1.09729 0.50465C1.07542 0.503259 1.05888 0.502217 1.04777 0.50152C1.04222 0.501172 1.03803 0.500911 1.0352 0.500735C1.03379 0.500647 1.03272 0.50058 1.032 0.500535C1.03163 0.500513 1.03136 0.500496 1.03117 0.500484C1.03107 0.500478 1.031 0.500473 1.03094 0.50047C1.03092 0.500469 1.0309 0.500467 1.03088 0.500466C1.03088 0.500466 1.03087 0.500465 1.03086 0.500465C1.03086 0.500465 1.03085 0.500465 1 0.999512ZM4.03389 1.71544C4.63498 1.76104 5.3157 1.81415 6.06815 1.87509L6.14888 0.878356C5.39466 0.817272 4.71224 0.764026 4.10953 0.718308L4.03389 1.71544ZM8.13331 2.04729C8.77947 2.10267 9.46161 2.16254 10.1765 2.22701L10.2663 1.23105C9.54991 1.16645 8.86629 1.10645 8.21872 1.05094L8.13331 2.04729ZM12.2206 2.41585C12.8818 2.47837 13.5647 2.54436 14.2674 2.61388L14.3658 1.61874C13.6617 1.54907 12.9773 1.48295 12.3148 1.4203L12.2206 2.41585ZM16.3151 2.821C16.9838 2.89011 17.6671 2.96219 18.3635 3.0373L18.4708 2.04306C17.7728 1.96779 17.0881 1.89556 16.4179 1.8263L16.3151 2.821ZM20.4022 3.26182C21.072 3.33713 21.7519 3.41511 22.4405 3.4958L22.5569 2.50259C21.8666 2.42172 21.1852 2.34356 20.5139 2.26808L20.4022 3.26182ZM24.4805 3.73978C25.1543 3.82203 25.835 3.9068 26.5216 3.99414L26.6478 3.00213C25.9594 2.91458 25.277 2.8296 24.6017 2.74715L24.4805 3.73978ZM28.563 4.25921C29.2377 4.34863 29.9168 4.44049 30.5995 4.53483L30.7364 3.54424C30.0518 3.44964 29.3708 3.35754 28.6945 3.26788L28.563 4.25921ZM32.6323 4.82166C33.3079 4.91901 33.986 5.01878 34.6656 5.121L34.8144 4.13212C34.1326 4.02959 33.4525 3.92952 32.7749 3.83188L32.6323 4.82166ZM36.6976 5.43332C37.3733 5.53947 38.0497 5.64806 38.7259 5.75913L38.8879 4.77235C38.2094 4.6609 37.5307 4.55194 36.8528 4.44544L36.6976 5.43332ZM40.7518 6.0996C41.4277 6.21584 42.1025 6.33459 42.7753 6.45589L42.9528 5.47176C42.2772 5.34997 41.5997 5.23075 40.9212 5.11407L40.7518 6.0996ZM44.7942 6.82889C45.4687 6.95659 46.1401 7.08692 46.8076 7.21991L47.003 6.23919C46.3323 6.10555 45.6577 5.97461 44.9803 5.84634L44.7942 6.82889ZM48.8214 7.63194C49.4961 7.77372 50.1656 7.91832 50.829 8.06579L51.046 7.08962C50.3786 6.94127 49.7053 6.79585 49.0271 6.65332L48.8214 7.63194ZM52.8282 8.52348C53.4991 8.68172 54.1625 8.84304 54.8171 9.00748L55.0608 8.03761C54.4012 7.87194 53.7332 7.70948 53.0578 7.55018L52.8282 8.52348ZM56.7995 9.52242C57.47 9.70263 58.1295 9.88633 58.7769 10.0736L59.0547 9.11294C58.401 8.92384 57.7353 8.73844 57.0591 8.55669L56.7995 9.52242ZM60.7396 10.6643C61.4039 10.8725 62.0526 11.0848 62.6842 11.3012L63.0083 10.3552C62.3678 10.1357 61.7108 9.92072 61.0387 9.71006L60.7396 10.6643ZM64.6061 11.993C64.9238 12.1134 65.2362 12.2349 65.5428 12.3576L65.9143 11.4291C65.6017 11.3041 65.2836 11.1803 64.9603 11.0579L64.6061 11.993ZM65.5428 12.3576C65.8623 12.4854 66.1791 12.6146 66.4931 12.7451L66.8768 11.8216C66.5587 11.6895 66.2379 11.5586 65.9143 11.4291L65.5428 12.3576ZM68.3571 13.5488C68.9815 13.828 69.595 14.1125 70.1984 14.4021L70.6311 13.5006C70.0197 13.2071 69.3979 12.9188 68.7653 12.6359L68.3571 13.5488ZM72.0232 15.3089C72.6325 15.6221 73.2313 15.9406 73.8202 16.264L74.3016 15.3875C73.7047 15.0597 73.0979 14.737 72.4805 14.4195L72.0232 15.3089ZM75.5892 17.2669C76.179 17.6119 76.7591 17.9619 77.3301 18.3166L77.8577 17.4671C77.2794 17.1079 76.6917 16.7533 76.0941 16.4037L75.5892 17.2669ZM79.043 19.4115C79.6133 19.7864 80.1747 20.1659 80.7282 20.5496L81.2979 19.7277C80.7379 19.3395 80.1696 18.9554 79.5923 18.5759L79.043 19.4115ZM82.3863 21.7282C82.9377 22.1299 83.4817 22.5356 84.0189 22.945L84.625 22.1496C84.0823 21.736 83.5326 21.326 82.975 20.9199L82.3863 21.7282ZM85.6275 24.1964C86.1616 24.6203 86.6898 25.0476 87.2129 25.478L87.8482 24.7057C87.3209 24.2719 86.7882 23.8409 86.2491 23.4131L85.6275 24.1964ZM88.7779 26.786C89.2976 27.227 89.8131 27.6707 90.3253 28.1165L90.9819 27.3622C90.4669 26.9139 89.9482 26.4675 89.4249 26.0235L88.7779 26.786ZM91.8586 29.4652C92.3682 29.9178 92.8754 30.3721 93.3812 30.8279L94.0506 30.085C93.5434 29.628 93.0344 29.172 92.5226 28.7175L91.8586 29.4652ZM94.897 32.2002C95.4015 32.6587 95.9054 33.118 96.4099 33.5779L97.0836 32.8388C96.5791 32.3791 96.0747 31.9193 95.5696 31.4602L94.897 32.2002ZM97.9239 34.9565C98.4285 35.4151 98.9345 35.8737 99.443 36.3318L100.112 35.5889C99.6053 35.132 99.1004 34.6744 98.5965 34.2165L97.9239 34.9565ZM100.971 37.6993C101.481 38.1522 101.994 38.6042 102.511 39.0549L103.168 38.3008C102.653 37.8526 102.143 37.4027 101.635 36.9517L100.971 37.6993ZM104.067 40.3944C104.587 40.836 105.112 41.2759 105.643 41.7137L106.279 40.9423C105.752 40.5079 105.231 40.0711 104.715 39.6323L104.067 40.3944ZM107.239 43.009C107.773 43.4342 108.313 43.8569 108.86 44.2767L109.469 43.4832C108.927 43.0674 108.391 42.6486 107.863 42.2271L107.239 43.009ZM110.504 45.5114C111.053 45.9147 111.609 46.3148 112.174 46.7113L112.749 45.8928C112.19 45.5006 111.639 45.1047 111.096 44.7056L110.504 45.5114ZM113.872 47.8737C114.438 48.2517 115.013 48.6259 115.597 48.9962L116.132 48.1515C115.555 47.7856 114.987 47.4157 114.427 47.0421L113.872 47.8737ZM117.35 50.0769C117.934 50.4269 118.527 50.7728 119.131 51.1144L119.623 50.244C119.027 49.9067 118.441 49.565 117.864 49.2192L117.35 50.0769ZM120.94 52.1078C121.539 52.4267 122.148 52.7413 122.767 53.0512L123.215 52.157C122.603 51.8508 122.002 51.5401 121.41 51.2252L120.94 52.1078ZM124.617 53.9482C124.929 54.0945 125.243 54.2397 125.56 54.3837L125.973 53.4732C125.66 53.3309 125.35 53.1875 125.042 53.043L124.617 53.9482ZM125.56 54.3837C125.87 54.5247 126.182 54.6636 126.496 54.8005L126.896 53.8842C126.587 53.7492 126.28 53.6122 125.973 53.4732L125.56 54.3837ZM128.392 55.5974C129.024 55.853 129.661 56.1008 130.303 56.3409L130.653 55.4043C130.02 55.1672 129.39 54.9226 128.766 54.6703L128.392 55.5974ZM132.234 57.0363C132.88 57.26 133.529 57.4763 134.182 57.6856L134.487 56.7333C133.842 56.5263 133.2 56.3125 132.561 56.0914L132.234 57.0363ZM136.141 58.2893C136.796 58.4834 137.453 58.6706 138.113 58.8513L138.377 57.8868C137.724 57.7079 137.073 57.5226 136.425 57.3305L136.141 58.2893ZM140.097 59.373C140.759 59.5402 141.423 59.7011 142.088 59.856L142.315 58.882C141.655 58.7285 140.997 58.5691 140.341 58.4034L140.097 59.373ZM144.088 60.3024C144.757 60.4452 145.426 60.5822 146.095 60.7135L146.287 59.7322C145.623 59.602 144.96 59.4661 144.298 59.3245L144.088 60.3024ZM148.109 61.0914C148.782 61.212 149.455 61.3271 150.128 61.4369L150.289 60.45C149.621 60.341 148.953 60.2268 148.286 60.1071L148.109 61.0914ZM152.15 61.7516C152.828 61.8519 153.504 61.947 154.18 62.0371L154.312 61.0459C153.641 60.9564 152.969 60.8619 152.296 60.7623L152.15 61.7516ZM156.21 62.2938C156.889 62.3751 157.567 62.4514 158.242 62.5231L158.348 61.5287C157.677 61.4575 157.004 61.3816 156.329 61.3009L156.21 62.2938ZM160.282 62.7266C160.965 62.7904 161.644 62.8495 162.32 62.9043L162.401 61.9076C161.729 61.8531 161.054 61.7943 160.375 61.731L160.282 62.7266ZM164.356 63.0571C165.043 63.1046 165.726 63.1477 166.404 63.1867L166.461 62.1884C165.787 62.1496 165.108 62.1067 164.425 62.0594L164.356 63.0571ZM168.448 63.2929C169.134 63.3247 169.814 63.3524 170.487 63.3763L170.522 62.3769C169.853 62.3532 169.177 62.3256 168.494 62.294L168.448 63.2929ZM172.532 63.4381C173.224 63.4553 173.908 63.4686 174.583 63.4784L174.597 62.4785C173.926 62.4688 173.246 62.4555 172.557 62.4384L172.532 63.4381ZM176.629 63.4976C177.321 63.5006 178.002 63.5 178.671 63.4962L178.665 62.4962C177.999 62.5 177.322 62.5006 176.633 62.4976L176.629 63.4976ZM180.709 63.4745C181.407 63.4636 182.089 63.4495 182.755 63.4325L182.73 62.4328C182.067 62.4497 181.388 62.4638 180.694 62.4746L180.709 63.4745ZM184.803 63.3702C185.507 63.3454 186.189 63.3176 186.848 63.2878L186.803 62.2888C186.147 62.3185 185.468 62.3461 184.768 62.3709L184.803 63.3702ZM188.889 63.185C189.602 63.1454 190.281 63.1038 190.923 63.0615L190.858 62.0636C190.219 62.1058 189.543 62.1471 188.833 62.1865L188.889 63.185ZM192.982 62.914C193.734 62.8558 194.412 62.7985 195.01 62.7447L194.92 61.7487C194.327 61.8021 193.653 61.8591 192.905 61.917L192.982 62.914ZM197.051 62.5455C197.38 62.5105 197.632 62.4821 197.802 62.4623C197.887 62.4524 197.952 62.4447 197.995 62.4394C198.017 62.4367 198.034 62.4347 198.045 62.4333C198.05 62.4327 198.055 62.4321 198.058 62.4318C198.059 62.4316 198.06 62.4315 198.061 62.4314C198.061 62.4313 198.062 62.4313 198.062 62.4313C198.062 62.4312 198.062 62.4312 198.062 62.4312C198.062 62.4312 198.062 62.4312 198.062 62.4312C198.062 62.4312 198.062 62.4312 198.062 62.4312C198.062 62.4312 198.062 62.4312 198 61.9351C197.938 61.439 197.938 61.439 197.938 61.439C197.938 61.439 197.938 61.439 197.938 61.439C197.938 61.439 197.938 61.439 197.938 61.439C197.938 61.439 197.937 61.439 197.937 61.4391C197.936 61.4391 197.935 61.4393 197.934 61.4394C197.932 61.4397 197.928 61.4402 197.923 61.4409C197.912 61.4421 197.896 61.4441 197.875 61.4466C197.833 61.4517 197.77 61.4592 197.687 61.469C197.519 61.4884 197.271 61.5165 196.945 61.5511L197.051 62.5455Z" fill="white"/>
</svg>
