<svg width="202" height="56" viewBox="0 0 202 56" fill="none" xmlns="http://www.w3.org/2000/svg">
<path d="M0.965755 51.3187C0.767946 51.5114 0.763795 51.8279 0.95648 52.0257L4.09641 55.2492C4.2891 55.447 4.60566 55.4512 4.80347 55.2585C5.00128 55.0658 5.00543 54.7492 4.81274 54.5514L2.02168 51.6861L4.887 48.8951C5.08481 48.7024 5.08896 48.3858 4.89628 48.188C4.70359 47.9902 4.38705 47.9861 4.18924 48.1787L0.965755 51.3187ZM92.6507 43.3617L92.7846 43.8434L92.6507 43.3617ZM162.549 9.78048L162.708 10.2547L162.549 9.78048ZM201.5 1.48779C201.431 0.992569 201.431 0.99257 201.431 0.992571C201.431 0.992571 201.431 0.992572 201.431 0.992573C201.431 0.992575 201.431 0.992578 201.431 0.992582C201.431 0.992589 201.431 0.992599 201.431 0.992612C201.431 0.992638 201.43 0.992675 201.43 0.992725C201.429 0.992824 201.428 0.992969 201.427 0.993161C201.424 0.993546 201.42 0.994117 201.415 0.994875C201.404 0.99639 201.388 0.99865 201.366 1.00165C201.324 1.00764 201.261 1.01659 201.178 1.02845C201.012 1.05216 200.767 1.0875 200.45 1.13407L200.595 2.12345C200.911 2.07708 201.155 2.04193 201.319 2.01839C201.402 2.00663 201.464 1.99776 201.506 1.99185C201.527 1.98889 201.543 1.98668 201.553 1.9852C201.559 1.98446 201.563 1.98391 201.565 1.98355C201.566 1.98337 201.567 1.98323 201.568 1.98314C201.568 1.9831 201.569 1.98307 201.569 1.98304C201.569 1.98303 201.569 1.98303 201.569 1.98302C201.569 1.98302 201.569 1.98302 201.569 1.98302C201.569 1.98302 201.569 1.98302 201.569 1.98302C201.569 1.98302 201.569 1.98302 201.5 1.48779ZM198.475 1.43157C197.889 1.52182 197.226 1.62541 196.497 1.74179L196.655 2.72928C197.382 2.61321 198.043 2.50991 198.627 2.41992L198.475 1.43157ZM194.532 2.06099C193.907 2.1642 193.249 2.27436 192.563 2.39125L192.731 3.37705C193.415 3.26046 194.071 3.15058 194.695 3.04764L194.532 2.06099ZM190.594 2.732C189.956 2.84409 189.3 2.96108 188.628 3.08283L188.806 4.0668C189.476 3.94538 190.131 3.8287 190.767 3.71691L190.594 2.732ZM186.666 3.44394C186.022 3.5644 185.367 3.68879 184.702 3.81698L184.892 4.79885C185.554 4.67105 186.207 4.54703 186.85 4.42691L186.666 3.44394ZM182.741 4.20177C182.095 4.33072 181.442 4.46302 180.786 4.59857L180.988 5.57792C181.642 5.44285 182.293 5.31099 182.937 5.18245L182.741 4.20177ZM178.831 5.00923C178.182 5.14808 177.531 5.28994 176.879 5.43473L177.096 6.41094C177.745 6.26674 178.394 6.12544 179.04 5.98711L178.831 5.00923ZM174.93 5.8763C174.28 6.02661 173.631 6.17975 172.985 6.33562L173.22 7.30771C173.862 7.15263 174.508 7.00023 175.155 6.8506L174.93 5.8763ZM171.043 6.81511C170.392 6.9797 169.746 7.14706 169.106 7.31707L169.363 8.28349C169.999 8.11459 170.641 7.94827 171.288 7.78461L171.043 6.81511ZM167.177 7.84449C166.527 8.02726 165.886 8.21284 165.257 8.40112L165.544 9.35913C166.167 9.17257 166.802 8.98854 167.447 8.80716L167.177 7.84449ZM163.339 8.99569C163.019 9.09848 162.703 9.20202 162.391 9.30628L162.708 10.2547C163.016 10.1517 163.328 10.0494 163.645 9.94773L163.339 8.99569ZM162.391 9.30628C162.06 9.41703 161.731 9.52827 161.405 9.63999L161.729 10.586C162.053 10.4751 162.379 10.3647 162.708 10.2547L162.391 9.30628ZM159.476 10.3169C158.82 10.5529 158.174 10.7908 157.539 11.0306L157.892 11.9662C158.523 11.7283 159.163 11.4921 159.815 11.2579L159.476 10.3169ZM155.619 11.7724C154.975 12.0274 154.342 12.2842 153.718 12.5427L154.101 13.4664C154.72 13.21 155.348 12.9552 155.987 12.7023L155.619 11.7724ZM151.831 13.3435C151.193 13.6208 150.564 13.8999 149.946 14.1807L150.36 15.0912C150.973 14.8127 151.596 14.5358 152.23 14.2607L151.831 13.3435ZM148.08 15.0472C147.453 15.3443 146.837 15.643 146.23 15.9432L146.673 16.8396C147.276 16.5418 147.887 16.2454 148.508 15.9507L148.08 15.0472ZM144.397 16.8682C143.782 17.1845 143.176 17.5023 142.579 17.8212L143.05 18.7034C143.643 18.3867 144.244 18.0713 144.854 17.7574L144.397 16.8682ZM140.775 18.8015C140.169 19.1359 139.572 19.4715 138.982 19.8078L139.477 20.6767C140.063 20.3424 140.657 20.009 141.258 19.6768L140.775 18.8015ZM137.202 20.8353C136.608 21.1834 136.019 21.532 135.436 21.881L135.949 22.7391C136.53 22.3916 137.116 22.0446 137.708 21.6984L137.202 20.8353ZM133.68 22.9416C133.093 23.2987 132.511 23.656 131.932 24.0131L132.457 24.8643C133.035 24.5079 133.616 24.1517 134.2 23.7957L133.68 22.9416ZM130.19 25.0915C129.609 25.4523 129.03 25.8128 128.451 26.1725L128.979 27.0217C129.558 26.6618 130.137 26.3016 130.718 25.9411L130.19 25.0915ZM126.713 27.2514C126.133 27.6099 125.553 27.9674 124.971 28.3237L125.494 29.1765C126.077 28.8192 126.659 28.4608 127.239 28.1017L126.713 27.2514ZM123.225 29.3852C122.644 29.7354 122.059 30.0843 121.471 30.4314L121.979 31.2928C122.57 30.9439 123.158 30.5934 123.741 30.2417L123.225 29.3852ZM119.706 31.4585C119.119 31.7953 118.528 32.1301 117.929 32.4629L118.415 33.3369C119.018 33.0017 119.614 32.6646 120.204 32.3258L119.706 31.4585ZM116.138 33.4416C115.543 33.7605 114.941 34.0773 114.331 34.3917L114.789 35.2806C115.404 34.9636 116.011 34.6443 116.61 34.3228L116.138 33.4416ZM112.513 35.3087C111.91 35.6059 111.299 35.9006 110.679 36.1928L111.105 37.0975C111.731 36.8027 112.347 36.5053 112.955 36.2055L112.513 35.3087ZM108.828 37.043C108.216 37.3176 107.594 37.5896 106.961 37.8589L107.353 38.779C107.991 38.5072 108.619 38.2326 109.237 37.9555L108.828 37.043ZM105.077 38.6405C104.453 38.8924 103.818 39.1417 103.173 39.3883L103.53 40.3224C104.181 40.0736 104.821 39.822 105.451 39.5678L105.077 38.6405ZM101.269 40.0962C100.639 40.3236 99.9999 40.5484 99.3494 40.7705L99.6725 41.7169C100.329 41.4929 100.974 41.2661 101.609 41.0367L101.269 40.0962ZM97.4118 41.4133C96.7707 41.6199 96.1191 41.8239 95.4565 42.0252L95.7472 42.982C96.4152 42.7791 97.0721 42.5734 97.7185 42.3651L97.4118 41.4133ZM93.5116 42.5992C93.1826 42.6934 92.8511 42.787 92.5168 42.8799L92.7846 43.8434C93.1214 43.7498 93.4555 43.6555 93.787 43.5605L93.5116 42.5992ZM92.5168 42.8799C92.2036 42.967 91.888 43.0532 91.57 43.1385L91.829 44.1043C92.1499 44.0183 92.4685 43.9313 92.7846 43.8434L92.5168 42.8799ZM89.6344 43.6395C89.0005 43.7979 88.3584 43.9531 87.7084 44.105L87.9361 45.0788C88.5907 44.9257 89.2379 44.7694 89.8769 44.6097L89.6344 43.6395ZM85.7569 44.5466C85.1156 44.6872 84.4676 44.8247 83.8133 44.9594L84.015 45.9389C84.6732 45.8034 85.3253 45.6649 85.9709 45.5235L85.7569 44.5466ZM81.8567 45.3503C81.2083 45.476 80.5544 45.599 79.8956 45.7194L80.0754 46.7031C80.7376 46.5821 81.3949 46.4584 82.047 46.332L81.8567 45.3503ZM77.9347 46.0676C77.2813 46.1803 76.6236 46.2906 75.962 46.3985L76.123 47.3855C76.7875 47.2771 77.4482 47.1663 78.1047 47.053L77.9347 46.0676ZM73.9968 46.7103C73.34 46.8116 72.6799 46.9107 72.0169 47.0076L72.1615 47.9971C72.8271 47.8999 73.4898 47.8004 74.1494 47.6986L73.9968 46.7103ZM70.0472 47.2878C69.3889 47.379 68.7281 47.468 68.0653 47.555L68.1954 48.5465C68.8605 48.4592 69.5236 48.3698 70.1844 48.2784L70.0472 47.2878ZM66.0885 47.8077C65.4288 47.8898 64.7673 47.97 64.1047 48.0482L64.2219 49.0413C64.8866 48.9628 65.5501 48.8824 66.2121 48.8L66.0885 47.8077ZM62.1228 48.2761C61.4616 48.3501 60.7996 48.4223 60.137 48.4927L60.2427 49.4871C60.907 49.4165 61.571 49.3441 62.2341 49.2699L62.1228 48.2761ZM58.1514 48.6981C57.4888 48.7648 56.8261 48.8298 56.1637 48.8931L56.2588 49.8885C56.9229 49.8251 57.5873 49.76 58.2516 49.6931L58.1514 48.6981ZM54.1755 49.0779C53.5114 49.138 52.848 49.1964 52.1857 49.2531L52.271 50.2495C52.935 50.1926 53.5999 50.1341 54.2656 50.0738L54.1755 49.0779ZM50.196 49.419C49.5304 49.473 48.8661 49.5253 48.2037 49.5761L48.2801 50.5732C48.944 50.5223 49.6097 50.4698 50.2768 50.4157L50.196 49.419ZM46.2139 49.7244C45.5464 49.7727 44.8811 49.8195 44.2184 49.8647L44.2865 50.8624C44.9505 50.817 45.6172 50.7702 46.2861 50.7218L46.2139 49.7244ZM42.2302 49.9965C41.5604 50.0395 40.8937 50.0811 40.2306 50.1211L40.2909 51.1193C40.9553 51.0792 41.6233 51.0376 42.2944 50.9944L42.2302 49.9965ZM38.246 50.2374C37.5734 50.2755 36.905 50.3121 36.2412 50.3474L36.2942 51.346C36.9592 51.3107 37.6288 51.274 38.3027 51.2358L38.246 50.2374ZM34.2521 50.4493C33.5798 50.4826 32.913 50.5145 32.2521 50.5449L32.298 51.5438C32.9601 51.5133 33.6281 51.4815 34.3015 51.4481L34.2521 50.4493ZM30.2557 50.6334C29.5855 50.662 28.9222 50.6891 28.2663 50.7149L28.3056 51.7142C28.9626 51.6883 29.627 51.6611 30.2983 51.6325L30.2557 50.6334ZM26.2598 50.7906C25.5884 50.8148 24.9258 50.8376 24.2726 50.859L24.3054 51.8585C24.9597 51.837 25.6234 51.8142 26.2958 51.7899L26.2598 50.7906ZM22.2711 50.9216C21.5915 50.9417 20.9234 50.9604 20.2676 50.9778L20.2941 51.9774C20.9509 51.9601 21.62 51.9413 22.3007 51.9211L22.2711 50.9216ZM18.281 51.0273C17.5995 51.0432 16.9334 51.0577 16.2836 51.0708L16.3038 52.0706C16.9546 52.0574 17.6218 52.043 18.3044 52.027L18.281 51.0273ZM14.2748 51.1081C13.5857 51.1198 12.9186 51.13 12.2748 51.1389L12.2885 52.1388C12.9334 52.1299 13.6016 52.1197 14.2917 52.108L14.2748 51.1081ZM10.2793 51.163C9.57809 51.1703 8.91167 51.176 8.28239 51.1804L8.28933 52.1803C8.91973 52.176 9.58732 52.1703 10.2897 52.163L10.2793 51.163ZM6.27961 51.1906C5.53806 51.1929 4.87109 51.1934 4.2846 51.1928L4.28353 52.1928C4.87138 52.1934 5.53978 52.1929 6.28278 52.1905L6.27961 51.1906ZM2.28042 51.1854C1.96621 51.1833 1.72615 51.1812 1.56477 51.1796C1.48407 51.1788 1.42306 51.1781 1.38228 51.1776C1.36189 51.1774 1.34655 51.1772 1.33636 51.1771C1.33125 51.177 1.32744 51.177 1.32491 51.1769C1.32364 51.1769 1.3227 51.1769 1.32209 51.1769C1.32178 51.1769 1.32154 51.1769 1.32141 51.1769C1.32132 51.1769 1.32127 51.1769 1.32124 51.1769C1.32122 51.1769 1.32122 51.1769 1.32121 51.1769C1.32121 51.1769 1.32121 51.1769 1.31464 51.6768C1.30808 52.1768 1.30809 52.1768 1.30809 52.1768C1.30809 52.1768 1.3081 52.1768 1.3081 52.1768C1.30812 52.1768 1.30814 52.1768 1.30817 52.1768C1.3082 52.1768 1.30829 52.1768 1.30837 52.1768C1.30854 52.1768 1.30881 52.1768 1.30915 52.1768C1.30983 52.1768 1.31084 52.1768 1.31216 52.1769C1.31481 52.1769 1.31877 52.1769 1.324 52.177C1.33445 52.1771 1.35006 52.1773 1.3707 52.1776C1.41201 52.178 1.47355 52.1787 1.55478 52.1795C1.71724 52.1811 1.9584 52.1833 2.27375 52.1854L2.28042 51.1854Z" fill="white"/>
</svg>
