<svg width="205" height="61" viewBox="0 0 205 61" fill="none" xmlns="http://www.w3.org/2000/svg">
<path d="M204.354 57.3599C204.549 57.1646 204.549 56.8481 204.354 56.6528L201.172 53.4708C200.976 53.2756 200.66 53.2756 200.464 53.4708C200.269 53.6661 200.269 53.9827 200.464 54.1779L203.293 57.0063L200.464 59.8348C200.269 60.03 200.269 60.3466 200.464 60.5419C200.66 60.7371 200.976 60.7371 201.172 60.5419L204.354 57.3599ZM131.83 42.6356L132.149 42.2508L131.83 42.6356ZM72.1698 6.95324L72.3245 6.47776L72.1698 6.95324ZM0 1.00635C-8.28839e-07 1.50635 -1.67249e-06 1.50635 -1.22098e-06 1.50635C6.56532e-07 1.50635 2.40268e-06 1.50635 6.15684e-06 1.50635C1.36649e-05 1.50635 2.63516e-05 1.50635 4.42143e-05 1.50635C7.99396e-05 1.50635 0.000136369 1.50635 0.000213481 1.50635C0.000367704 1.50635 0.000604657 1.50635 0.00092417 1.50635C0.00156319 1.50635 0.00253246 1.50635 0.00383059 1.50635C0.00642685 1.50635 0.0103386 1.50635 0.0155549 1.50635C0.0259875 1.50636 0.0416382 1.50637 0.0624197 1.50639C0.103983 1.50644 0.166068 1.50653 0.247977 1.50672C0.411796 1.50709 0.654905 1.50783 0.97171 1.50932L0.976401 0.50933C0.65876 0.50784 0.414842 0.507094 0.250244 0.506721C0.167945 0.506535 0.105475 0.506441 0.0635348 0.506395C0.0425647 0.506371 0.0267268 0.506359 0.0161086 0.506354C0.0107996 0.506351 0.00679543 0.506349 0.00410716 0.506348C0.00276302 0.506348 0.00174784 0.506348 0.001063 0.506348C0.000720577 0.506348 0.000460738 0.506348 0.000283653 0.506348C0.000195111 0.506348 0.000127256 0.506348 8.01118e-05 0.506348C5.65396e-05 0.506348 3.81447e-05 0.506348 2.493e-05 0.506348C1.83228e-05 0.506348 1.22972e-05 0.506348 8.99336e-06 0.506348C4.26351e-06 0.506348 8.28839e-07 0.506348 0 1.00635ZM2.98992 1.52328C3.59085 1.52861 4.27376 1.53562 5.03071 1.54483L5.04288 0.544901C4.28478 0.535675 3.60077 0.528657 2.99879 0.523319L2.98992 1.52328ZM7.0378 1.57223C7.67401 1.58183 8.34608 1.59284 9.05093 1.60546L9.06882 0.605617C8.36301 0.592986 7.69001 0.581962 7.0529 0.572342L7.0378 1.57223ZM11.0693 1.64434C11.722 1.65781 12.3967 1.67259 13.0914 1.68881L13.1148 0.689083C12.4191 0.672839 11.7435 0.658039 11.0899 0.644555L11.0693 1.64434ZM15.0985 1.73839C15.7538 1.75547 16.4238 1.77381 17.1071 1.7935L17.1359 0.79391C16.4517 0.774197 15.7808 0.755835 15.1245 0.738732L15.0985 1.73839ZM19.1218 1.85437C19.7851 1.87535 20.459 1.89759 21.1422 1.92118L21.1767 0.921772C20.4925 0.898152 19.8177 0.875875 19.1534 0.854865L19.1218 1.85437ZM23.1586 1.99378C23.821 2.01862 24.4906 2.04473 25.1667 2.07217L25.2072 1.07299C24.5301 1.04551 23.8594 1.01936 23.1961 0.994485L23.1586 1.99378ZM27.1821 2.15718C27.8504 2.18645 28.5238 2.21704 29.2014 2.24901L29.2485 1.25012C28.5697 1.2181 27.8952 1.18746 27.2258 1.15814L27.1821 2.15718ZM31.2086 2.34719C31.8768 2.38105 32.5481 2.41628 33.2218 2.45293L33.2761 1.4544C32.6011 1.41769 31.9286 1.38239 31.2592 1.34847L31.2086 2.34719ZM35.2363 2.56643C35.9049 2.60543 36.5749 2.64585 37.2456 2.68777L37.308 1.68972C36.6358 1.64771 35.9644 1.6072 35.2945 1.56813L35.2363 2.56643ZM39.2571 2.81789C39.9271 2.86274 40.597 2.90913 41.266 2.95709L41.3376 1.95965C40.6669 1.91157 39.9954 1.86508 39.3239 1.82012L39.2571 2.81789ZM43.2764 3.10633C43.948 3.15792 44.6179 3.21118 45.2852 3.26616L45.3673 2.26954C44.6981 2.2144 44.0264 2.161 43.353 2.10927L43.2764 3.10633ZM47.2876 3.43706C47.9614 3.49663 48.6317 3.55804 49.2977 3.62134L49.3923 2.62582C48.7241 2.56231 48.0515 2.5007 47.3756 2.44094L47.2876 3.43706ZM51.3027 3.81909C51.9737 3.88777 52.6393 3.95847 53.2985 4.03128L53.4082 3.03732C52.7463 2.96421 52.0781 2.89322 51.4045 2.82429L51.3027 3.81909ZM55.3022 4.26154C55.9774 4.34228 56.6446 4.42538 57.3028 4.51091L57.4316 3.51925C56.7699 3.43326 56.0993 3.34974 55.4209 3.26861L55.3022 4.26154ZM59.293 4.78107C59.964 4.87623 60.6237 4.97414 61.271 5.07486L61.4248 4.08676C60.7728 3.9853 60.1086 3.88673 59.4335 3.79098L59.293 4.78107ZM63.2626 5.40076C63.9398 5.51736 64.6004 5.63739 65.2431 5.76097L65.4319 4.77896C64.7824 4.65407 64.1153 4.53287 63.4323 4.41526L63.2626 5.40076ZM67.2098 6.1629C67.8855 6.30986 68.5362 6.46134 69.1597 6.61744L69.4026 5.64737C68.768 5.4885 68.1071 5.33468 67.4223 5.18574L67.2098 6.1629ZM71.0866 7.1409C71.406 7.23536 71.7156 7.3313 72.0152 7.42872L72.3245 6.47776C72.0158 6.37738 71.6976 6.27879 71.3703 6.18197L71.0866 7.1409ZM72.0152 7.42872C72.3125 7.52543 72.6254 7.63383 72.9534 7.75354L73.2963 6.81417C72.9586 6.69091 72.6344 6.57857 72.3245 6.47776L72.0152 7.42872ZM74.8412 8.49719C75.4301 8.7437 76.0509 9.01519 76.7007 9.30983L77.1137 8.39909C76.4563 8.10098 75.8265 7.82552 75.2273 7.57474L74.8412 8.49719ZM78.5492 10.1727C79.1429 10.457 79.7553 10.7566 80.3846 11.0704L80.8308 10.1755C80.1972 9.85955 79.58 9.55757 78.9811 9.27074L78.5492 10.1727ZM82.2081 11.9947C82.8008 12.2998 83.4058 12.6153 84.0217 12.9406L84.4887 12.0563C83.8699 11.7295 83.2617 11.4123 82.6656 11.1055L82.2081 11.9947ZM85.8275 13.9047C86.4191 14.2239 87.0192 14.5508 87.6265 14.8847L88.1082 14.0083C87.4987 13.6733 86.8964 13.3451 86.3023 13.0246L85.8275 13.9047ZM89.4198 15.8786C90.0091 16.2079 90.604 16.5428 91.2038 16.8828L91.6969 16.0129C91.0955 15.6719 90.4987 15.3359 89.9075 15.0056L89.4198 15.8786ZM92.9789 17.8959C93.5662 18.2333 94.1572 18.5749 94.751 18.9202L95.2536 18.0557C94.6584 17.7096 94.0659 17.3671 93.477 17.0288L92.9789 17.8959ZM96.5196 19.9544C97.106 20.2993 97.6944 20.6471 98.2839 20.9975L98.7948 20.1379C98.204 19.7867 97.6143 19.4381 97.0265 19.0924L96.5196 19.9544ZM100.042 22.0474C100.626 22.3982 101.21 22.7509 101.795 23.1051L102.313 22.2499C101.728 21.895 101.142 21.5415 100.556 21.19L100.042 22.0474ZM103.545 24.1707C104.127 24.5274 104.709 24.8851 105.289 25.2433L105.815 24.3924C105.234 24.0335 104.651 23.6751 104.066 23.3177L103.545 24.1707ZM107.029 26.3221C107.611 26.6848 108.19 27.0475 108.766 27.4098L109.298 26.5632C108.721 26.2002 108.141 25.8368 107.557 25.4734L107.029 26.3221ZM110.499 28.5044C111.079 28.8726 111.655 29.2398 112.226 29.6055L112.765 28.7634C112.193 28.397 111.616 28.029 111.035 27.6601L110.499 28.5044ZM113.946 30.7125C114.524 31.0864 115.096 31.458 115.66 31.8269L116.207 30.9898C115.641 30.62 115.068 30.2475 114.489 29.8729L113.946 30.7125ZM117.375 32.9533C117.954 33.3354 118.523 33.7138 119.083 34.0878L119.639 33.2563C119.077 32.8813 118.506 32.502 117.926 32.1189L117.375 32.9533ZM120.783 35.2311C121.361 35.6218 121.925 36.0065 122.475 36.3845L123.041 35.5602C122.489 35.1809 121.923 34.7948 121.344 34.403L120.783 35.2311ZM124.158 37.5497C124.735 37.9527 125.293 38.3461 125.831 38.729L126.411 37.9146C125.871 37.5298 125.31 37.1345 124.731 36.7299L124.158 37.5497ZM127.488 39.9249C128.065 40.3466 128.61 40.7519 129.122 41.1388L129.725 40.3414C129.209 39.9508 128.659 39.5422 128.078 39.1176L127.488 39.9249ZM130.735 42.3895C131.009 42.6085 131.268 42.819 131.511 43.0204L132.149 42.2508C131.901 42.0448 131.637 41.8303 131.358 41.6078L130.735 42.3895ZM131.511 43.0204C131.761 43.2282 132.019 43.4329 132.284 43.6345L132.89 42.8386C132.636 42.6452 132.389 42.4493 132.149 42.2508L131.511 43.0204ZM133.921 44.7837C134.468 45.139 135.038 45.4839 135.629 45.8189L136.122 44.9489C135.547 44.6232 134.995 44.2887 134.466 43.9452L133.921 44.7837ZM137.391 46.7573C137.969 47.0471 138.564 47.3289 139.174 47.6029L139.584 46.6907C138.986 46.4221 138.404 46.1464 137.839 45.8634L137.391 46.7573ZM140.992 48.3789C141.596 48.6239 142.213 48.8622 142.84 49.0941L143.187 48.156C142.568 47.9276 141.962 47.6931 141.368 47.4522L140.992 48.3789ZM144.712 49.7548C145.326 49.9624 145.95 50.1643 146.582 50.3608L146.879 49.4058C146.254 49.2117 145.638 49.0122 145.032 48.8074L144.712 49.7548ZM148.473 50.9255C149.102 51.106 149.738 51.2816 150.381 51.4522L150.637 50.4858C150.001 50.3167 149.371 50.1429 148.749 49.9643L148.473 50.9255ZM152.285 51.9398C152.919 52.0963 153.559 52.2484 154.202 52.3962L154.426 51.4215C153.787 51.2749 153.153 51.1241 152.524 50.9689L152.285 51.9398ZM156.13 52.8235C156.768 52.9601 157.41 53.0927 158.055 53.2214L158.25 52.2408C157.61 52.1129 156.973 51.9812 156.339 51.8456L156.13 52.8235ZM159.989 53.5949C160.633 53.7151 161.279 53.8316 161.926 53.9445L162.098 52.9594C161.455 52.8471 160.812 52.7313 160.172 52.6118L159.989 53.5949ZM163.867 54.2719C164.515 54.3776 165.163 54.4798 165.811 54.5787L165.962 53.5901C165.317 53.4917 164.672 53.3901 164.028 53.285L163.867 54.2719ZM167.757 54.8659C168.408 54.9588 169.059 55.0485 169.707 55.135L169.839 54.1438C169.194 54.0577 168.546 53.9684 167.898 53.8759L167.757 54.8659ZM171.656 55.3863C172.31 55.4678 172.961 55.5461 173.61 55.6215L173.725 54.6282C173.08 54.5531 172.431 54.4751 171.779 54.3939L171.656 55.3863ZM175.566 55.841C176.221 55.9119 176.871 55.9797 177.516 56.0446L177.617 55.0497C176.974 54.985 176.326 54.9174 175.674 54.8468L175.566 55.841ZM179.478 56.2349C180.138 56.2965 180.793 56.3552 181.439 56.411L181.525 55.4147C180.881 55.3591 180.229 55.3006 179.571 55.2392L179.478 56.2349ZM183.393 56.573C184.055 56.6257 184.709 56.6754 185.352 56.7223L185.425 55.725C184.784 55.6782 184.133 55.6287 183.472 55.5761L183.393 56.573ZM187.321 56.8596C187.989 56.904 188.644 56.9453 189.284 56.9838L189.344 55.9856C188.706 55.9472 188.053 55.906 187.387 55.8618L187.321 56.8596ZM191.243 57.0955C191.914 57.1317 192.567 57.1647 193.198 57.1948L193.246 56.196C192.616 56.166 191.966 56.133 191.296 56.0969L191.243 57.0955ZM195.155 57.2821C195.843 57.3106 196.499 57.3355 197.12 57.3572L197.155 56.3578C196.536 56.3361 195.882 56.3113 195.196 56.2829L195.155 57.2821ZM199.099 57.4197C199.832 57.4403 200.494 57.4561 201.077 57.468L201.098 56.4682C200.517 56.4563 199.858 56.4407 199.127 56.4201L199.099 57.4197ZM203.049 57.4996C203.358 57.503 203.595 57.5047 203.755 57.5055C203.836 57.5059 203.897 57.5061 203.938 57.5062C203.958 57.5063 203.974 57.5063 203.984 57.5063C203.989 57.5063 203.993 57.5063 203.996 57.5063C203.997 57.5063 203.998 57.5063 203.999 57.5063C203.999 57.5063 203.999 57.5063 204 57.5063C204 57.5063 204 57.5063 204 57.5063C204 57.5063 204 57.5063 204 57.5063C204 57.5063 204 57.5063 204 57.5063C204 57.5063 204 57.5063 204 57.0063C204 56.5063 204 56.5063 204 56.5063C204 56.5063 204 56.5063 204 56.5063C204 56.5063 204 56.5063 204 56.5063C204 56.5063 203.999 56.5063 203.999 56.5063C203.999 56.5063 203.998 56.5063 203.996 56.5063C203.994 56.5063 203.99 56.5063 203.985 56.5063C203.975 56.5063 203.96 56.5063 203.94 56.5062C203.9 56.5061 203.84 56.5059 203.761 56.5055C203.602 56.5047 203.367 56.503 203.059 56.4997L203.049 57.4996Z" fill="white"/>
</svg>
