<svg width="247" height="58" viewBox="0 0 247 58" fill="none" xmlns="http://www.w3.org/2000/svg">
<path d="M0.657782 53.7981C0.462201 53.9931 0.461707 54.3096 0.656659 54.5052L3.83359 57.6922C4.02854 57.8878 4.34512 57.8883 4.54069 57.6934C4.73626 57.4984 4.73677 57.1818 4.54181 56.9863L1.71787 54.1533L4.55079 51.3294C4.74635 51.1345 4.74686 50.8179 4.55191 50.6223C4.35696 50.4267 4.04037 50.4262 3.8448 50.6212L0.657782 53.7981ZM132.982 44.5864L133.12 45.0671L132.982 44.5864ZM205.994 9.52955L206.155 10.0029L205.994 9.52955ZM246.5 0.499512C246.425 0.00516643 246.425 0.00516712 246.425 0.00516804C246.425 0.0051686 246.425 0.00516973 246.425 0.00517088C246.425 0.00517319 246.425 0.00517633 246.425 0.0051803C246.425 0.00518825 246.425 0.00519954 246.425 0.00521413C246.425 0.00524329 246.424 0.00528575 246.424 0.00534149C246.423 0.00545293 246.422 0.00561739 246.421 0.0058348C246.418 0.00626961 246.414 0.00691607 246.408 0.0077732C246.397 0.00948747 246.38 0.0120444 246.358 0.0154359C246.314 0.0222189 246.248 0.0323405 246.162 0.0457359C245.989 0.0725267 245.734 0.112414 245.405 0.164881L245.562 1.15245C245.89 1.10019 246.144 1.0605 246.315 1.0339C246.401 1.02059 246.466 1.01056 246.509 1.00387C246.531 1.00052 246.548 0.998008 246.559 0.996337C246.564 0.995501 246.568 0.994876 246.571 0.994462C246.572 0.994255 246.573 0.994102 246.574 0.994001C246.574 0.99395 246.575 0.993913 246.575 0.993889C246.575 0.993877 246.575 0.993868 246.575 0.993863C246.575 0.99386 246.575 0.993859 246.575 0.993858C246.575 0.993857 246.575 0.993857 246.575 0.993857C246.575 0.993857 246.575 0.993857 246.5 0.499512ZM243.351 0.499141C242.741 0.600321 242.052 0.71627 241.294 0.846265L241.463 1.83187C242.219 1.7022 242.906 1.58655 243.514 1.48565L243.351 0.499141ZM239.25 1.20217C238.6 1.31705 237.916 1.43951 237.203 1.56925L237.382 2.55311C238.094 2.42369 238.776 2.30152 239.424 2.18691L239.25 1.20217ZM235.155 1.94696C234.492 2.07098 233.81 2.20028 233.111 2.33464L233.3 3.31663C233.997 3.18261 234.677 3.05364 235.339 2.92991L235.155 1.94696ZM231.071 2.73266C230.401 2.86525 229.72 3.00198 229.029 3.14269L229.229 4.12256C229.918 3.98223 230.597 3.84587 231.265 3.71364L231.071 2.73266ZM226.99 3.56444C226.318 3.70559 225.64 3.85021 224.957 3.99818L225.169 4.9755C225.849 4.828 226.526 4.68382 227.196 4.54309L226.99 3.56444ZM222.925 4.44583C222.25 4.59696 221.573 4.75117 220.895 4.90833L221.121 5.88248C221.796 5.72592 222.471 5.57227 223.143 5.42166L222.925 4.44583ZM218.869 5.38689C218.193 5.54954 217.518 5.71502 216.847 5.88319L217.09 6.85324C217.758 6.68585 218.43 6.52111 219.103 6.35913L218.869 5.38689ZM214.828 6.39965C214.151 6.57664 213.479 6.75631 212.815 6.93854L213.079 7.90296C213.74 7.72183 214.408 7.54318 215.081 7.36712L214.828 6.39965ZM210.809 7.5028C210.133 7.69798 209.467 7.89582 208.813 8.09617L209.106 9.05233C209.754 8.85365 210.415 8.65734 211.086 8.46352L210.809 7.5028ZM206.818 8.72742C206.486 8.83633 206.157 8.94592 205.833 9.05615L206.155 10.0029C206.475 9.89396 206.8 9.78555 207.13 9.67775L206.818 8.72742ZM205.833 9.05615C205.505 9.16763 205.18 9.27951 204.857 9.39178L205.185 10.3364C205.506 10.2248 205.829 10.1137 206.155 10.0029L205.833 9.05615ZM202.947 10.07C202.297 10.3061 201.656 10.5438 201.025 10.783L201.38 11.718C202.006 11.4805 202.642 11.2445 203.288 11.01L202.947 10.07ZM199.125 11.5191C198.489 11.7711 197.862 12.0246 197.244 12.2796L197.626 13.2039C198.239 12.9508 198.861 12.6991 199.493 12.4489L199.125 11.5191ZM195.359 13.0746C194.727 13.347 194.104 13.621 193.491 13.8963L193.9 14.8086C194.509 14.5354 195.127 14.2635 195.755 13.9931L195.359 13.0746ZM191.64 14.7438C191.019 15.0338 190.408 15.3252 189.805 15.6177L190.241 16.5173C190.84 16.2269 191.447 15.9377 192.063 15.6499L191.64 14.7438ZM187.974 16.5231C187.36 16.8323 186.755 17.1428 186.158 17.4542L186.621 18.3408C187.214 18.0315 187.814 17.7232 188.424 17.4162L187.974 16.5231ZM184.358 18.409C183.755 18.734 183.16 19.0599 182.572 19.3865L183.057 20.2607C183.642 19.936 184.233 19.6122 184.832 19.2893L184.358 18.409ZM180.799 20.3848C180.205 20.7233 179.618 21.0623 179.037 21.4018L179.541 22.2654C180.12 21.9275 180.704 21.5901 181.294 21.2534L180.799 20.3848ZM177.283 22.4363C176.697 22.7853 176.115 23.1345 175.538 23.4837L176.055 24.3395C176.631 23.9913 177.211 23.6432 177.795 23.2956L177.283 22.4363ZM173.8 24.5401C173.22 24.8944 172.643 25.2485 172.067 25.6021L172.591 26.4541C173.166 26.1007 173.742 25.7471 174.321 25.3935L173.8 24.5401ZM170.337 26.666C169.761 27.0208 169.185 27.3748 168.608 27.7281L169.13 28.5808C169.708 28.2271 170.284 27.8727 170.861 27.5178L170.337 26.666ZM166.876 28.7843C166.299 29.1344 165.72 29.4834 165.139 29.8311L165.652 30.6893C166.236 30.3403 166.816 29.9902 167.395 29.6392L166.876 28.7843ZM163.395 30.8649C162.815 31.2054 162.231 31.5446 161.642 31.8822L162.139 32.7498C162.731 32.4103 163.318 32.0694 163.901 31.7273L163.395 30.8649ZM159.879 32.8788C159.294 33.2049 158.703 33.5294 158.106 33.8519L158.581 34.7318C159.183 34.407 159.777 34.0805 160.366 33.7523L159.879 32.8788ZM156.32 34.7997C155.727 35.1086 155.127 35.4156 154.52 35.7204L154.968 36.6143C155.581 36.307 156.185 35.9977 156.782 35.6865L156.32 34.7997ZM152.704 36.6127C152.102 36.9025 151.491 37.1902 150.871 37.4757L151.29 38.384C151.915 38.0961 152.53 37.806 153.138 37.5138L152.704 36.6127ZM149.025 38.3075C148.416 38.5752 147.799 38.8408 147.172 39.1041L147.559 40.0261C148.191 39.7606 148.814 39.4928 149.428 39.2228L149.025 38.3075ZM145.303 39.8701C144.684 40.1177 144.055 40.3631 143.416 40.6062L143.772 41.5409C144.416 41.2958 145.05 41.0483 145.674 40.7986L145.303 39.8701ZM141.513 41.3121C140.89 41.5374 140.257 41.7606 139.614 41.9815L139.939 42.9272C140.587 42.7046 141.225 42.4797 141.853 42.2525L141.513 41.3121ZM137.696 42.6235C137.06 42.8311 136.413 43.0365 135.757 43.2397L136.052 44.195C136.714 43.9904 137.365 43.7834 138.006 43.5742L137.696 42.6235ZM133.83 43.8202C133.504 43.9159 133.176 44.011 132.845 44.1056L133.12 45.0671C133.453 44.9719 133.784 44.8761 134.112 44.7798L133.83 43.8202ZM132.845 44.1056C132.541 44.1925 132.231 44.2787 131.917 44.364L132.179 45.3291C132.497 45.2426 132.811 45.1553 133.12 45.0671L132.845 44.1056ZM129.969 44.8672C129.343 45.0213 128.7 45.1727 128.041 45.3215L128.261 46.297C128.926 46.1469 129.575 45.994 130.208 45.8383L129.969 44.8672ZM126.059 45.751C125.426 45.8828 124.779 46.0124 124.121 46.1399L124.311 47.1217C124.974 46.9934 125.625 46.8628 126.263 46.73L126.059 45.751ZM122.129 46.5123C121.488 46.6281 120.836 46.742 120.175 46.8541L120.342 47.84C121.007 47.7274 121.662 47.6128 122.307 47.4964L122.129 46.5123ZM118.185 47.1812C117.535 47.2848 116.877 47.3867 116.21 47.487L116.359 48.4759C117.028 48.3751 117.689 48.2728 118.342 48.1687L118.185 47.1812ZM114.226 47.7774C113.568 47.8712 112.902 47.9635 112.23 48.0543L112.364 49.0453C113.038 48.9542 113.706 48.8616 114.367 48.7674L114.226 47.7774ZM110.254 48.3145C109.589 48.3999 108.918 48.4839 108.241 48.5666L108.363 49.5592C109.041 49.4763 109.714 49.392 110.381 49.3064L110.254 48.3145ZM106.268 48.8021C105.606 48.8792 104.94 48.955 104.269 49.0297L104.38 50.0236C105.052 49.9487 105.72 49.8727 106.383 49.7954L106.268 48.8021ZM102.27 49.2472C101.611 49.3173 100.948 49.3862 100.282 49.454L100.383 50.4489C101.051 50.3809 101.715 50.3118 102.376 50.2416L102.27 49.2472ZM98.2712 49.6543C97.6116 49.7186 96.9487 49.7819 96.2827 49.8441L96.3757 50.8398C97.043 50.7774 97.7073 50.714 98.3683 50.6496L98.2712 49.6543ZM94.2835 50.0271C93.6168 50.0869 92.9473 50.1457 92.2753 50.2035L92.361 51.1999C93.0342 51.1419 93.7049 51.083 94.3728 51.0232L94.2835 50.0271ZM90.2833 50.3716C89.6171 50.4266 88.9487 50.4808 88.2784 50.534L88.3575 51.5309C89.0289 51.4776 89.6984 51.4233 90.3657 51.3682L90.2833 50.3716ZM86.2754 50.69C85.6107 50.7408 84.9443 50.7906 84.2766 50.8397L84.3498 51.837C85.0185 51.7879 85.6858 51.7379 86.3516 51.6871L86.2754 50.69ZM82.2694 50.9842C81.6033 51.0313 80.9361 51.0775 80.2679 51.1229L80.3357 52.1206C81.0047 52.0751 81.6728 52.0288 82.3399 51.9817L82.2694 50.9842ZM78.2651 51.2564C77.5968 51.3001 76.9278 51.343 76.2584 51.3851L76.3212 52.3832C76.9914 52.341 77.6612 52.298 78.3304 52.2543L78.2651 51.2564ZM74.2551 51.5088C73.5871 51.5493 72.9189 51.589 72.2508 51.6279L72.309 52.6262C72.9779 52.5872 73.6468 52.5475 74.3156 52.507L74.2551 51.5088ZM70.2457 51.7426C69.5763 51.7801 68.9072 51.8169 68.2387 51.853L68.2926 52.8516C68.9618 52.8154 69.6316 52.7786 70.3017 52.741L70.2457 51.7426ZM66.2348 51.9591C65.5652 51.9939 64.8963 52.028 64.2284 52.0613L64.2783 53.0601C64.9468 53.0267 65.6164 52.9926 66.2867 52.9578L66.2348 51.9591ZM62.2198 52.1598C61.5514 52.1919 60.8842 52.2233 60.2185 52.254L60.2647 53.253C60.9309 53.2222 61.5987 53.1907 62.2677 53.1586L62.2198 52.1598ZM58.2075 52.3451C57.5364 52.3749 56.867 52.404 56.1997 52.4324L56.2423 53.4315C56.9102 53.403 57.5801 53.3739 58.2519 53.3441L58.2075 52.3451ZM54.2036 52.5158C53.528 52.5434 52.8548 52.5704 52.1841 52.5967L52.2234 53.5959C52.8945 53.5696 53.5683 53.5426 54.2445 53.5149L54.2036 52.5158ZM50.1803 52.6737C49.5094 52.6989 48.8413 52.7235 48.1765 52.7475L48.2125 53.7468C48.8779 53.7229 49.5464 53.6982 50.2179 53.673L50.1803 52.6737ZM46.16 52.8186C45.4914 52.8416 44.8263 52.864 44.1651 52.8858L44.198 53.8853C44.8597 53.8635 45.5253 53.841 46.1945 53.818L46.16 52.8186ZM42.1464 52.9509C41.4728 52.9721 40.8035 52.9926 40.139 53.0126L40.169 54.0121C40.834 53.9922 41.5037 53.9716 42.1779 53.9504L42.1464 52.9509ZM38.1415 53.0711C37.4614 53.0905 36.7867 53.1093 36.1179 53.1274L36.145 54.1271C36.8143 54.1089 37.4895 54.0901 38.17 54.0707L38.1415 53.0711ZM34.1291 53.1801C33.4467 53.1976 32.7709 53.2146 32.1022 53.2309L32.1266 54.2306C32.7958 54.2143 33.472 54.1973 34.1549 54.1797L34.1291 53.1801ZM30.1018 53.2783C29.4233 53.2939 28.7527 53.3088 28.0905 53.3232L28.1122 54.323C28.7748 54.3086 29.4458 54.2936 30.1248 54.278L30.1018 53.2783ZM26.0782 53.3654C25.402 53.3792 24.7356 53.3922 24.0794 53.4047L24.0984 54.4045C24.755 54.3921 25.4219 54.379 26.0986 54.3652L26.0782 53.3654ZM22.0577 53.4417C21.3805 53.4537 20.7155 53.4649 20.0635 53.4756L20.0798 54.4754C20.7323 54.4648 21.3976 54.4535 22.0754 54.4416L22.0577 53.4417ZM18.0403 53.5072C17.3563 53.5174 16.6885 53.5269 16.0379 53.5358L16.0515 54.5357C16.7025 54.5268 17.3707 54.5173 18.0553 54.5071L18.0403 53.5072ZM14.0321 53.5616C13.333 53.5702 12.6572 53.5779 12.006 53.5849L12.0168 54.5849C12.6684 54.5778 13.3447 54.5701 14.0443 54.5616L14.0321 53.5616ZM10.0292 53.6048C9.31794 53.6114 8.64322 53.6171 8.00708 53.622L8.01481 54.622C8.65147 54.617 9.32671 54.6113 10.0385 54.6047L10.0292 53.6048ZM5.98056 53.636C5.23202 53.6404 4.5605 53.6437 3.97124 53.6461L3.97529 54.6461C4.56518 54.6437 5.23735 54.6404 5.98657 54.6359L5.98056 53.636ZM1.9853 53.6518C1.6659 53.6523 1.42234 53.6524 1.2587 53.6524C1.17688 53.6524 1.11503 53.6523 1.07367 53.6523C1.05299 53.6523 1.03743 53.6523 1.02706 53.6522C1.02187 53.6522 1.01799 53.6522 1.0154 53.6522C1.0141 53.6522 1.01314 53.6522 1.0125 53.6522C1.01218 53.6522 1.01194 53.6522 1.01178 53.6522C1.0117 53.6522 1.01165 53.6522 1.01162 53.6522C1.0116 53.6522 1.01158 53.6522 1.01157 53.6522L1.01156 53.6522C1.01156 53.6522 1.01156 53.6522 1.01077 54.1522C1.00997 54.6522 1.00998 54.6522 1.00998 54.6522C1.00998 54.6522 1.00999 54.6522 1.01 54.6522C1.01 54.6522 1.01002 54.6522 1.01005 54.6522C1.01009 54.6522 1.01016 54.6522 1.01024 54.6522C1.01042 54.6522 1.01068 54.6522 1.011 54.6522C1.01167 54.6522 1.01267 54.6522 1.01399 54.6522C1.01664 54.6522 1.0206 54.6522 1.02584 54.6522C1.03634 54.6523 1.05202 54.6523 1.07282 54.6523C1.11443 54.6523 1.17653 54.6524 1.2586 54.6524C1.42276 54.6524 1.66684 54.6523 1.98678 54.6518L1.9853 53.6518Z" fill="white"/>
</svg>
