<svg width="243" height="54" viewBox="0 0 243 54" fill="none" xmlns="http://www.w3.org/2000/svg">
<path d="M242.353 50.3536C242.549 50.1585 242.549 49.8419 242.354 49.6465L239.174 46.4619C238.979 46.2665 238.663 46.2662 238.467 46.4613C238.272 46.6564 238.272 46.973 238.467 47.1684L241.293 49.9992L238.462 52.8253C238.267 53.0204 238.266 53.337 238.462 53.5324C238.657 53.7278 238.973 53.7281 239.169 53.533L242.353 50.3536ZM156 41.9998L156.145 41.5212L156 41.9998ZM92 6.99974L91.8839 7.48608L92 6.99974ZM1 1.00133C1.00251 1.50132 1.00251 1.50132 1.00251 1.50132C1.00251 1.50132 1.00251 1.50132 1.00252 1.50132C1.00252 1.50132 1.00254 1.50132 1.00255 1.50132C1.00259 1.50132 1.00265 1.50132 1.00272 1.50132C1.00288 1.50132 1.00311 1.50132 1.00342 1.50131C1.00405 1.50131 1.005 1.50131 1.00628 1.5013C1.00882 1.50129 1.01266 1.50127 1.01777 1.50125C1.028 1.5012 1.04334 1.50113 1.06371 1.50105C1.10447 1.50088 1.16538 1.50065 1.24586 1.5004C1.40682 1.49989 1.64605 1.49928 1.9588 1.4989L1.95759 0.498903C1.64416 0.499282 1.40429 0.499888 1.2427 0.5004C1.1619 0.500656 1.10067 0.500889 1.05961 0.501057C1.03908 0.501142 1.02359 0.50121 1.01321 0.501257C1.00802 0.501281 1.00411 0.501299 1.00149 0.501312C1.00018 0.501318 0.999186 0.501323 0.99852 0.501326C0.998187 0.501328 0.997935 0.501329 0.997764 0.50133C0.997678 0.50133 0.997612 0.501331 0.997567 0.501331C0.997545 0.501331 0.997527 0.501331 0.997515 0.501331C0.997508 0.501331 0.997503 0.501331 0.9975 0.501331C0.997495 0.501331 0.997492 0.501331 1 1.00133ZM3.96373 1.50005C4.54306 1.50129 5.2006 1.50338 5.93025 1.50676L5.93488 0.506774C5.20436 0.50339 4.54599 0.501289 3.96586 0.500056L3.96373 1.50005ZM7.91533 1.51822C8.54242 1.52253 9.2063 1.52774 9.90448 1.53401L9.91346 0.534048C9.21456 0.527772 8.54998 0.52256 7.92221 0.518243L7.91533 1.51822ZM11.8996 1.55395C12.5421 1.56102 13.2076 1.56896 13.8946 1.57788L13.9075 0.577964C13.2199 0.569039 12.5538 0.56109 11.9106 0.554013L11.8996 1.55395ZM15.8623 1.60532C16.5083 1.61494 17.1702 1.62542 17.847 1.63682L17.8638 0.636957C17.1864 0.62555 16.5238 0.615064 15.8772 0.605427L15.8623 1.60532ZM19.8487 1.67248C20.4943 1.68461 21.1516 1.69758 21.8196 1.71143L21.8404 0.711643C21.1717 0.697777 20.5137 0.684799 19.8675 0.672653L19.8487 1.67248ZM23.8054 1.75457C24.4615 1.76947 25.1266 1.78522 25.8 1.80188L25.8248 0.802189C25.1506 0.785513 24.4848 0.769741 23.8281 0.754824L23.8054 1.75457ZM27.7734 1.8527C28.4315 1.87032 29.0966 1.88881 29.7681 1.9082L29.797 0.908619C29.1247 0.889204 28.4589 0.870698 27.8001 0.853059L27.7734 1.8527ZM31.7446 1.96739C32.4019 1.98778 33.0646 2.00905 33.7322 2.03124L33.7654 1.03179C33.0971 1.00958 32.4336 0.988287 31.7756 0.967872L31.7446 1.96739ZM35.7155 2.0994C36.3727 2.12274 37.0339 2.14697 37.6987 2.17214L37.7365 1.17286C37.071 1.14766 36.409 1.1234 35.751 1.10003L35.7155 2.0994ZM39.6849 2.24975C40.3424 2.27624 41.0028 2.30367 41.6657 2.33205L41.7084 1.33296C41.0447 1.30454 40.3835 1.27709 39.7252 1.25056L39.6849 2.24975ZM43.6522 2.4197C44.3105 2.44962 44.9706 2.4805 45.6322 2.51237L45.6803 1.51353C45.0178 1.48161 44.3567 1.45069 43.6976 1.42074L43.6522 2.4197ZM47.6174 2.61084C48.2766 2.64449 48.9368 2.67915 49.5976 2.71485L49.6515 1.71631C48.9898 1.68055 48.3286 1.64584 47.6684 1.61214L47.6174 2.61084ZM51.5802 2.82506C52.2407 2.86282 52.9012 2.90165 53.5614 2.94158L53.6218 1.9434C52.9605 1.90341 52.2988 1.86451 51.6373 1.82669L51.5802 2.82506ZM55.5413 3.06473C56.2029 3.10705 56.8637 3.15051 57.5232 3.19513L57.5907 2.19741C56.9299 2.1527 56.2679 2.10917 55.6051 2.06677L55.5413 3.06473ZM59.5009 3.33276C60.1633 3.38017 60.8239 3.42879 61.4823 3.47866L61.5578 2.48152C60.898 2.43154 60.236 2.38281 59.5723 2.33531L59.5009 3.33276ZM63.4586 3.6327C64.1212 3.68584 64.7811 3.74029 65.4377 3.7961L65.5224 2.79969C64.8641 2.74375 64.2026 2.68916 63.5385 2.6359L63.4586 3.6327ZM67.4135 3.96902C68.0757 4.0287 68.734 4.08981 69.388 4.15239L69.4832 3.15694C68.8274 3.09418 68.1672 3.03289 67.5033 2.97306L67.4135 3.96902ZM71.3646 4.34745C72.0252 4.41467 72.6806 4.48346 73.3304 4.55387L73.4381 3.55969C72.7861 3.48904 72.1285 3.42002 71.4659 3.35259L71.3646 4.34745ZM75.3094 4.77543C75.9683 4.85164 76.6205 4.92961 77.2654 5.00938L77.3881 4.01694C76.7405 3.93684 76.0857 3.85855 75.4243 3.78205L75.3094 4.77543ZM79.2433 5.26283C79.9058 5.35078 80.5595 5.44078 81.2038 5.53286L81.3452 4.54291C80.6975 4.45034 80.0405 4.3599 79.3749 4.27153L79.2433 5.26283ZM83.1571 5.82305C83.8244 5.92613 84.48 6.03164 85.1231 6.13963L85.2887 5.15344C84.6411 5.04468 83.9811 4.93848 83.3098 4.83477L83.1571 5.82305ZM87.0645 6.4804C87.7259 6.60181 88.3717 6.72613 89.001 6.85342L89.1992 5.87327C88.5637 5.74471 87.9119 5.61926 87.2451 5.49684L87.0645 6.4804ZM90.9458 7.2685C91.2637 7.34016 91.5764 7.41268 91.8839 7.48608L92.1161 6.51341C91.8044 6.43899 91.4875 6.36552 91.1657 6.29298L90.9458 7.2685ZM91.8839 7.48608C92.2183 7.56589 92.5498 7.64759 92.8785 7.73112L93.1248 6.76192C92.7914 6.6772 92.4552 6.59434 92.1161 6.51341L91.8839 7.48608ZM94.8304 8.25754C95.4871 8.44507 96.1326 8.64009 96.7673 8.84221L97.0707 7.88935C96.4264 7.68419 95.7714 7.48627 95.105 7.29598L94.8304 8.25754ZM98.6926 9.488C99.3372 9.71533 99.9707 9.95009 100.594 10.1919L100.955 9.25957C100.323 9.0141 99.6796 8.77573 99.0252 8.54493L98.6926 9.488ZM102.47 10.9537C103.098 11.2198 103.715 11.4931 104.322 11.773L104.74 10.8648C104.124 10.5807 103.498 10.3033 102.861 10.0331L102.47 10.9537ZM106.148 12.6482C106.757 12.9514 107.356 13.2613 107.947 13.5772L108.419 12.6954C107.819 12.375 107.211 12.0607 106.593 11.753L106.148 12.6482ZM109.721 14.5574C110.312 14.8947 110.895 15.2378 111.47 15.5863L111.988 14.7308C111.406 14.3781 110.815 14.0306 110.216 13.6889L109.721 14.5574ZM113.195 16.6584C113.768 17.0239 114.334 17.3944 114.895 17.7692L115.45 16.9377C114.884 16.5593 114.312 16.1849 113.732 15.8153L113.195 16.6584ZM116.574 18.9141C117.132 19.3018 117.685 19.6932 118.235 20.0879L118.818 19.2755C118.265 18.8782 117.707 18.4838 117.145 18.0929L116.574 18.9141ZM119.881 21.2852C120.428 21.688 120.972 22.0934 121.515 22.5007L122.115 21.7007C121.57 21.292 121.023 20.8849 120.474 20.48L119.881 21.2852ZM123.142 23.7287C123.684 24.1394 124.225 24.5511 124.766 24.9636L125.372 24.168C124.831 23.7556 124.289 23.3432 123.747 22.9319L123.142 23.7287ZM126.392 26.1999C126.933 26.6109 127.476 27.0218 128.022 27.4319L128.623 26.6324C128.079 26.2236 127.537 25.8137 126.996 25.4034L126.392 26.1999ZM129.662 28.6542C130.209 29.0582 130.76 29.4608 131.316 29.8613L131.9 29.0502C131.348 28.6522 130.801 28.2519 130.256 27.8498L129.662 28.6542ZM132.985 31.048C133.543 31.4378 134.106 31.8251 134.675 32.209L135.234 31.3799C134.67 30.9994 134.112 30.6154 133.559 30.2285L132.985 31.048ZM136.387 33.3397C136.959 33.7089 137.537 34.0743 138.124 34.4354L138.648 33.5838C138.068 33.2267 137.496 32.8652 136.93 32.4997L136.387 33.3397ZM139.885 35.4913C140.472 35.8333 141.067 36.1707 141.671 36.5029L142.153 35.6266C141.556 35.2986 140.969 34.9654 140.389 34.6274L139.885 35.4913ZM143.483 37.468C144.086 37.7789 144.698 38.0844 145.321 38.384L145.755 37.4829C145.14 37.1873 144.536 36.8859 143.941 36.5792L143.483 37.468ZM147.185 39.249C147.805 39.5259 148.434 39.7969 149.075 40.0616L149.457 39.1374C148.825 38.8764 148.204 38.6091 147.593 38.336L147.185 39.249ZM150.99 40.8212C151.622 41.0617 152.265 41.2959 152.918 41.5237L153.247 40.5793C152.603 40.3547 151.969 40.1236 151.345 39.8865L150.99 40.8212ZM154.864 42.1712C155.192 42.2752 155.522 42.3776 155.855 42.4784L156.145 41.5212C155.816 41.4218 155.49 41.3207 155.167 41.218L154.864 42.1712ZM155.855 42.4784C156.162 42.571 156.472 42.6625 156.787 42.7529L157.063 41.7917C156.752 41.7025 156.446 41.6124 156.145 41.5212L155.855 42.4784ZM158.709 43.2782C159.334 43.4407 159.972 43.5995 160.624 43.7547L160.856 42.7819C160.21 42.6282 159.578 42.4711 158.961 42.3104L158.709 43.2782ZM162.546 44.1937C163.183 44.3334 163.831 44.47 164.489 44.6035L164.688 43.6235C164.035 43.491 163.392 43.3555 162.76 43.217L162.546 44.1937ZM166.423 44.9818C167.062 45.1023 167.708 45.2201 168.363 45.3353L168.536 44.3505C167.886 44.2359 167.243 44.1188 166.608 43.9991L166.423 44.9818ZM170.321 45.6687C170.96 45.774 171.606 45.877 172.258 45.9778L172.411 44.9895C171.762 44.8892 171.119 44.7867 170.483 44.682L170.321 45.6687ZM174.214 46.271C174.859 46.3649 175.51 46.4567 176.165 46.5464L176.301 45.5557C175.648 45.4663 175 45.3749 174.358 45.2814L174.214 46.271ZM178.119 46.8065C178.769 46.8905 179.423 46.9726 180.079 47.0528L180.201 46.0602C179.546 45.9802 178.895 45.8984 178.248 45.8148L178.119 46.8065ZM182.034 47.285C182.686 47.3603 183.341 47.4339 183.998 47.5058L184.107 46.5117C183.452 46.4401 182.799 46.3667 182.148 46.2916L182.034 47.285ZM185.954 47.7141C186.607 47.7818 187.261 47.8478 187.917 47.9122L188.015 46.917C187.361 46.8528 186.708 46.7869 186.057 46.7194L185.954 47.7141ZM189.878 48.0998C190.532 48.1607 191.186 48.2201 191.841 48.278L191.929 47.2819C191.276 47.2241 190.623 47.1649 189.97 47.1041L189.878 48.0998ZM193.804 48.447C194.46 48.5019 195.115 48.5554 195.769 48.6074L195.848 47.6106C195.195 47.5587 194.542 47.5053 193.888 47.4505L193.804 48.447ZM197.733 48.7595C198.39 48.809 199.045 48.8572 199.7 48.904L199.771 47.9065C199.118 47.8598 198.463 47.8118 197.808 47.7623L197.733 48.7595ZM201.661 49.0405C202.321 49.0852 202.978 49.1284 203.632 49.1704L203.696 48.1725C203.043 48.1306 202.387 48.0874 201.729 48.0428L201.661 49.0405ZM205.593 49.2928C206.254 49.3329 206.912 49.3716 207.565 49.4091L207.623 48.4108C206.97 48.3734 206.313 48.3346 205.654 48.2946L205.593 49.2928ZM209.53 49.5186C210.191 49.5543 210.847 49.5888 211.497 49.622L211.548 48.6233C210.899 48.5901 210.244 48.5558 209.584 48.5201L209.53 49.5186ZM213.469 49.7195C214.127 49.7511 214.779 49.7813 215.425 49.8104L215.47 48.8114C214.825 48.7824 214.174 48.7522 213.517 48.7206L213.469 49.7195ZM217.406 49.8967C218.069 49.9246 218.724 49.9513 219.371 49.9767L219.41 48.9774C218.764 48.9521 218.11 48.9255 217.448 48.8976L217.406 49.8967ZM221.334 50.0511C222.005 50.0756 222.665 50.0988 223.313 50.1207L223.347 49.1213C222.7 49.0994 222.04 49.0763 221.37 49.0518L221.334 50.0511ZM225.278 50.1844C225.945 50.2051 226.597 50.2245 227.234 50.2426L227.262 49.243C226.626 49.2249 225.975 49.2056 225.309 49.1849L225.278 50.1844ZM229.218 50.2962C229.898 50.3137 230.557 50.3297 231.193 50.3443L231.216 49.3445C230.58 49.3299 229.922 49.314 229.243 49.2966L229.218 50.2962ZM233.163 50.3867C233.854 50.4006 234.511 50.4128 235.133 50.4235L235.15 49.4237C234.53 49.413 233.873 49.4008 233.183 49.3869L233.163 50.3867ZM237.106 50.4545C237.834 50.4648 238.49 50.4728 239.068 50.4789L239.079 49.479C238.502 49.4728 237.847 49.4649 237.12 49.4546L237.106 50.4545ZM241.049 50.4957C241.359 50.4976 241.597 50.4986 241.757 50.4992C241.837 50.4994 241.897 50.4996 241.938 50.4997C241.958 50.4997 241.974 50.4997 241.984 50.4998C241.989 50.4998 241.993 50.4998 241.996 50.4998C241.997 50.4998 241.998 50.4998 241.999 50.4998C241.999 50.4998 241.999 50.4998 241.999 50.4998C241.999 50.4998 241.999 50.4998 242 50.4998C242 50.4998 242 50.4998 242 50.4998C242 50.4998 242 50.4998 242 50.4998C242 50.4998 242 50.4998 242 49.9998C242 49.4998 242 49.4998 242 49.4998C242 49.4998 242 49.4998 242 49.4998C242 49.4998 242 49.4998 242 49.4998C242 49.4998 242 49.4998 242 49.4998C241.999 49.4998 241.998 49.4998 241.997 49.4998C241.994 49.4998 241.99 49.4998 241.985 49.4998C241.975 49.4997 241.96 49.4997 241.94 49.4997C241.9 49.4996 241.84 49.4994 241.76 49.4992C241.601 49.4986 241.364 49.4976 241.055 49.4958L241.049 50.4957Z" fill="white"/>
</svg>
