<svg width="235" height="47" viewBox="0 0 235 47" fill="none" xmlns="http://www.w3.org/2000/svg">
<path d="M0.835376 42.2938C0.64185 42.4908 0.644647 42.8074 0.841621 43.0009L4.05161 46.1546C4.2486 46.3481 4.56516 46.3454 4.7587 46.1484C4.95222 45.9514 4.94943 45.6348 4.75244 45.4413L1.89911 42.638L4.70243 39.7847C4.89595 39.5877 4.89316 39.2711 4.69618 39.0776C4.4992 38.8841 4.18264 38.8868 3.9891 39.0838L0.835376 42.2938ZM99.4996 35.3931L99.4017 34.9027L99.4996 35.3931ZM167.522 5.80454L167.659 6.2854L167.522 5.80454ZM234.5 0.501465C234.491 0.00154695 234.491 0.001547 234.491 0.00154707C234.491 0.00154714 234.491 0.00154724 234.491 0.00154736C234.491 0.00154756 234.491 0.00154789 234.491 0.00154828C234.491 0.0015491 234.491 0.00155029 234.491 0.00155186C234.49 0.00155498 234.49 0.00155957 234.49 0.00156566C234.489 0.00157784 234.488 0.00159597 234.487 0.00162012C234.484 0.00166841 234.48 0.00174068 234.475 0.00183726C234.465 0.00203045 234.449 0.0023209 234.429 0.00271115C234.387 0.00349166 234.326 0.00467139 234.245 0.00627057C234.083 0.00946896 233.844 0.0143454 233.532 0.0210624L233.553 1.02083C233.865 1.01413 234.104 1.00926 234.265 1.00608C234.345 1.00448 234.407 1.00331 234.447 1.00253C234.468 1.00214 234.483 1.00186 234.494 1.00167C234.499 1.00157 234.503 1.0015 234.505 1.00145C234.507 1.00143 234.507 1.00141 234.508 1.0014C234.508 1.00139 234.509 1.00139 234.509 1.00139C234.509 1.00139 234.509 1.00138 234.509 1.00138C234.509 1.00138 234.509 1.00138 234.509 1.00138C234.509 1.00138 234.509 1.00138 234.509 1.00138C234.509 1.00138 234.509 1.00138 234.5 0.501465ZM231.548 0.0670541C230.957 0.0815803 230.287 0.098761 229.545 0.118827L229.572 1.11846C230.313 1.09842 230.983 1.08126 231.572 1.06675L231.548 0.0670541ZM227.578 0.174187C226.952 0.192463 226.292 0.212387 225.599 0.234052L225.631 1.23356C226.322 1.21192 226.982 1.19202 227.607 1.17376L227.578 0.174187ZM223.618 0.298107C222.977 0.319476 222.315 0.342186 221.634 0.366292L221.67 1.36567C222.35 1.34158 223.011 1.3189 223.651 1.29755L223.618 0.298107ZM219.648 0.438652C219.003 0.4628 218.345 0.488126 217.674 0.514672L217.713 1.51389C218.384 1.48737 219.041 1.46207 219.685 1.43795L219.648 0.438652ZM215.7 0.594879C215.049 0.622012 214.389 0.650252 213.721 0.679636L213.765 1.67867C214.432 1.64932 215.092 1.62111 215.742 1.59401L215.7 0.594879ZM211.737 0.769083C211.083 0.79932 210.423 0.830632 209.757 0.863048L209.806 1.86186C210.471 1.82949 211.13 1.79822 211.783 1.76801L211.737 0.769083ZM207.782 0.961628C207.127 0.995208 206.466 1.02985 205.803 1.06559L205.857 2.06415C206.519 2.02845 207.179 1.99386 207.834 1.96032L207.782 0.961628ZM203.822 1.17508C203.165 1.2123 202.506 1.2506 201.846 1.29L201.906 2.28822C202.565 2.24888 203.223 2.21064 203.878 2.17348L203.822 1.17508ZM199.868 1.41119C199.209 1.45263 198.549 1.4952 197.89 1.53892L197.956 2.53672C198.614 2.49309 199.273 2.45059 199.931 2.40922L199.868 1.41119ZM195.914 1.67363C195.252 1.71993 194.593 1.76741 193.935 1.81611L194.009 2.81338C194.665 2.76478 195.324 2.7174 195.983 2.67119L195.914 1.67363ZM191.96 1.96672C191.298 2.01861 190.64 2.07176 189.987 2.12622L190.07 3.12277C190.722 3.06845 191.378 3.01542 192.038 2.96366L191.96 1.96672ZM188.007 2.29639C187.343 2.35533 186.684 2.41568 186.031 2.47749L186.126 3.47303C186.776 3.41142 187.433 3.35125 188.095 3.29248L188.007 2.29639ZM184.062 2.67059C183.396 2.7382 182.739 2.80742 182.091 2.87829L182.2 3.87237C182.845 3.80179 183.5 3.73284 184.163 3.66548L184.062 2.67059ZM180.113 3.10338C179.443 3.1828 178.785 3.26416 178.14 3.34749L178.268 4.33923C178.909 4.25639 179.564 4.17547 180.231 4.09644L180.113 3.10338ZM176.172 3.61433C175.499 3.71018 174.844 3.80847 174.209 3.90927L174.366 4.89691C174.995 4.79702 175.645 4.69952 176.313 4.60435L176.172 3.61433ZM172.248 4.24031C171.565 4.36331 170.911 4.48983 170.289 4.61998L170.494 5.59878C171.105 5.47079 171.75 5.34605 172.426 5.22449L172.248 4.24031ZM168.333 5.06921C168.004 5.15256 167.688 5.23737 167.385 5.32368L167.659 6.2854C167.952 6.20202 168.258 6.11974 168.579 6.03855L168.333 5.06921ZM167.385 5.32368C167.062 5.41582 166.741 5.50848 166.423 5.60166L166.705 6.56124C167.02 6.4688 167.338 6.37684 167.659 6.2854L167.385 5.32368ZM164.55 6.16669C163.909 6.36576 163.279 6.56694 162.66 6.77011L162.972 7.72018C163.586 7.51874 164.21 7.31923 164.847 7.12178L164.55 6.16669ZM160.794 7.40072C160.167 7.61863 159.551 7.83862 158.947 8.06051L159.292 8.99918C159.891 8.77931 160.5 8.56131 161.122 8.34532L160.794 7.40072ZM157.098 8.75918C156.474 9.00133 155.863 9.24552 155.263 9.49157L155.642 10.4168C156.236 10.1731 156.842 9.93124 157.46 9.69137L157.098 8.75918ZM153.447 10.2564C152.836 10.5207 152.237 10.7869 151.649 11.0547L152.063 11.9648C152.646 11.6995 153.239 11.436 153.844 11.1743L153.447 10.2564ZM149.867 11.8866C149.264 12.1748 148.673 12.4647 148.093 12.7559L148.541 13.6498C149.116 13.3613 149.702 13.0741 150.298 12.7887L149.867 11.8866ZM146.337 13.6562C145.748 13.9649 145.169 14.2748 144.599 14.5855L145.077 15.4636C145.643 15.1553 146.217 14.848 146.801 14.542L146.337 13.6562ZM142.877 15.5412C142.3 15.8668 141.731 16.1931 141.169 16.5198L141.671 17.3843C142.23 17.0596 142.795 16.7354 143.368 16.412L142.877 15.5412ZM139.474 17.517C138.907 17.8542 138.346 18.1913 137.789 18.528L138.306 19.3838C138.862 19.048 139.421 18.7122 139.985 18.3765L139.474 17.517ZM136.111 19.5472C135.551 19.8882 134.992 20.2299 134.436 20.5688L134.956 21.4226C135.514 21.0824 136.07 20.7428 136.631 20.4011L136.111 19.5472ZM132.761 21.5866C132.203 21.9242 131.644 22.2602 131.082 22.5943L131.593 23.4537C132.158 23.1181 132.719 22.7808 133.278 22.4423L132.761 21.5866ZM129.396 23.586C128.835 23.9117 128.27 24.2352 127.699 24.556L128.189 25.4278C128.764 25.1044 129.333 24.7786 129.898 24.4509L129.396 23.586ZM125.988 25.4992C125.42 25.806 124.845 26.1101 124.262 26.411L124.72 27.2997C125.31 26.9957 125.89 26.6886 126.464 26.379L125.988 25.4992ZM122.518 27.288C121.941 27.5709 121.354 27.8508 120.756 28.1272L121.176 29.0348C121.78 28.7551 122.374 28.4721 122.958 28.186L122.518 27.288ZM118.974 28.9269C118.386 29.183 117.786 29.4357 117.175 29.6849L117.553 30.6109C118.171 30.3587 118.778 30.103 119.373 29.8439L118.974 28.9269ZM115.365 30.3987C114.768 30.6262 114.159 30.8504 113.538 31.0711L113.872 32.0134C114.501 31.7902 115.117 31.5634 115.721 31.3332L115.365 30.3987ZM111.693 31.7033C111.084 31.9046 110.463 32.1025 109.829 32.2969L110.123 33.2529C110.763 33.0564 111.391 32.8563 112.007 32.6528L111.693 31.7033ZM107.952 32.8517C107.34 33.0259 106.716 33.197 106.079 33.3648L106.334 34.3317C106.977 34.1623 107.607 33.9895 108.226 33.8135L107.952 32.8517ZM104.187 33.8447C103.56 33.9975 102.922 34.1473 102.271 34.2938L102.491 35.2693C103.147 35.1215 103.791 34.9705 104.424 34.8162L104.187 33.8447ZM100.375 34.7043C100.054 34.7712 99.7292 34.8374 99.4017 34.9027L99.5975 35.8834C99.9276 35.8175 100.255 35.7508 100.579 35.6833L100.375 34.7043ZM99.4017 34.9027C99.0885 34.9653 98.7725 35.0273 98.4538 35.0887L98.6431 36.0707C98.9639 36.0088 99.2821 35.9464 99.5975 35.8834L99.4017 34.9027ZM96.5094 35.4513C95.8761 35.5655 95.2334 35.6778 94.5818 35.7882L94.7489 36.7741C95.4038 36.6632 96.05 36.5503 96.6869 36.4354L96.5094 35.4513ZM92.6239 36.1101C91.9868 36.2118 91.3421 36.3118 90.6903 36.4101L90.8395 37.3989C91.4939 37.3002 92.1414 37.1997 92.7815 37.0976L92.6239 36.1101ZM88.7332 36.6974C88.0904 36.7893 87.4415 36.8796 86.787 36.9684L86.9214 37.9593C87.5782 37.8702 88.2295 37.7796 88.8747 37.6874L88.7332 36.6974ZM84.8295 37.2274C84.1831 37.3109 83.5317 37.3929 82.8758 37.4735L82.9979 38.4661C83.6557 38.3852 84.309 38.3029 84.9575 38.2192L84.8295 37.2274ZM80.9169 37.7088C80.2681 37.7849 79.6153 37.8598 78.9589 37.9333L79.0703 38.9271C79.7283 38.8534 80.3828 38.7783 81.0334 38.702L80.9169 37.7088ZM76.9979 38.1483C76.3473 38.218 75.6937 38.2865 75.0374 38.3539L75.1395 39.3487C75.7972 39.2812 76.4524 39.2125 77.1045 39.1426L76.9979 38.1483ZM73.074 38.5511C72.4221 38.6152 71.768 38.6782 71.1119 38.7401L71.2057 39.7356C71.8631 39.6737 72.5186 39.6106 73.1719 39.5463L73.074 38.5511ZM69.1465 38.9216C68.4934 38.9807 67.8388 39.0387 67.1829 39.0956L67.2694 40.0919C67.9265 40.0348 68.5823 39.9767 69.2366 39.9175L69.1465 38.9216ZM65.2161 39.263C64.5618 39.3176 63.9067 39.3712 63.251 39.4237L63.3309 40.4205C63.9876 40.3679 64.6438 40.3142 65.2992 40.2596L65.2161 39.263ZM61.2835 39.5783C60.628 39.6288 59.9722 39.6784 59.3166 39.7269L59.3905 40.7242C60.047 40.6756 60.7038 40.626 61.3603 40.5754L61.2835 39.5783ZM57.3493 39.8698C56.6923 39.9166 56.0358 39.9624 55.3801 40.0073L55.4484 41.005C56.105 40.96 56.7624 40.9141 57.4203 40.8673L57.3493 39.8698ZM53.4138 40.1394C52.7552 40.1828 52.0978 40.2252 51.4419 40.2668L51.5051 41.2648C52.1619 41.2232 52.8201 41.1807 53.4795 41.1373L53.4138 40.1394ZM49.4772 40.3888C48.8169 40.429 48.1585 40.4684 47.5022 40.5068L47.5607 41.5051C48.2177 41.4666 48.8769 41.4272 49.538 41.387L49.4772 40.3888ZM45.5394 40.6195C44.8773 40.6567 44.2178 40.6931 43.5613 40.7286L43.6153 41.7271C44.2726 41.6916 44.9328 41.6552 45.5956 41.6179L45.5394 40.6195ZM41.6002 40.8326C40.9363 40.867 40.2759 40.9006 39.6194 40.9334L39.6692 41.9321C40.3264 41.8993 40.9875 41.8657 41.652 41.8312L41.6002 40.8326ZM37.6589 41.0291C36.9935 41.0609 36.3327 41.0919 35.6767 41.1219L35.7225 42.1209C36.3791 42.0908 37.0406 42.0598 37.7066 42.028L37.6589 41.0291ZM33.7149 41.21C33.0487 41.2392 32.3882 41.2676 31.7338 41.2951L31.7757 42.2942C32.4308 42.2667 33.092 42.2383 33.7588 42.209L33.7149 41.21ZM29.768 41.3759C29.1021 41.4026 28.4432 41.4285 27.792 41.4534L27.8304 42.4527C28.4821 42.4277 29.1416 42.4018 29.8081 42.3751L29.768 41.3759ZM25.8186 41.5273C25.155 41.5515 24.5004 41.5749 23.8552 41.5973L23.8899 42.5967C24.5357 42.5742 25.191 42.5509 25.8551 42.5266L25.8186 41.5273ZM21.8699 41.6645C21.2053 41.6865 20.552 41.7074 19.9109 41.7274L19.9421 42.7269C20.5838 42.7069 21.2376 42.6859 21.9029 42.664L21.8699 41.6645ZM17.931 41.7875C17.255 41.8075 16.5945 41.8263 15.9505 41.8442L15.9782 42.8438C16.6227 42.8259 17.2838 42.807 17.9605 42.7871L17.931 41.7875ZM13.9892 41.8968C13.3122 41.9143 12.657 41.9307 12.0246 41.9459L12.0487 42.9456C12.6817 42.9304 13.3376 42.914 14.0151 42.8964L13.9892 41.8968ZM10.0375 41.992C9.34235 42.0074 8.68204 42.0214 8.05884 42.034L8.07908 43.0338C8.70293 43.0212 9.3639 43.0072 10.0598 42.9917L10.0375 41.992ZM6.08637 42.0719C5.36144 42.0851 4.70892 42.096 4.1343 42.1051L4.15005 43.1049C4.72544 43.0959 5.37875 43.0849 6.1045 43.0718L6.08637 42.0719ZM2.13847 42.1335C1.82703 42.1374 1.58917 42.1401 1.42924 42.1418C1.34928 42.1427 1.28881 42.1433 1.24835 42.1437C1.22813 42.1439 1.2129 42.144 1.20276 42.1441C1.19769 42.1442 1.19389 42.1442 1.19136 42.1442C1.1901 42.1442 1.18915 42.1442 1.18852 42.1442C1.18822 42.1442 1.18798 42.1442 1.18783 42.1442C1.18776 42.1442 1.1877 42.1442 1.18767 42.1442C1.18765 42.1442 1.18763 42.1443 1.18763 42.1442L1.18762 42.1443C1.18762 42.1443 1.18762 42.1443 1.19204 42.6442C1.19647 43.1442 1.19647 43.1442 1.19647 43.1442L1.19648 43.1442C1.1965 43.1442 1.19652 43.1442 1.19654 43.1442C1.19659 43.1442 1.19664 43.1442 1.19674 43.1442C1.1969 43.1442 1.19714 43.1442 1.19748 43.1442C1.19813 43.1442 1.19912 43.1442 1.20042 43.1442C1.20302 43.1441 1.20689 43.1441 1.21204 43.1441C1.22234 43.144 1.23771 43.1438 1.25808 43.1436C1.29883 43.1432 1.35962 43.1426 1.43989 43.1418C1.60043 43.1401 1.83893 43.1374 2.15102 43.1335L2.13847 42.1335Z" fill="white"/>
</svg>
