<svg width="232" height="61" viewBox="0 0 232 61" fill="none" xmlns="http://www.w3.org/2000/svg">
<path d="M231.393 57.2578C231.564 57.0408 231.526 56.7264 231.309 56.5557L227.772 53.7738C227.555 53.603 227.241 53.6406 227.07 53.8577C226.899 54.0747 226.937 54.3891 227.154 54.5598L230.298 57.0326L227.825 60.1767C227.654 60.3937 227.692 60.7081 227.909 60.8788C228.126 61.0495 228.44 61.0119 228.611 60.7949L231.393 57.2578ZM155.638 48.9931L155.837 48.5342L155.638 48.9931ZM93 7.22598L92.822 7.69322L93 7.22598ZM1 1.2606C1.01508 1.76037 1.01508 1.76037 1.01508 1.76037C1.01508 1.76037 1.01508 1.76037 1.01509 1.76037C1.01509 1.76037 1.01511 1.76037 1.01512 1.76037C1.01516 1.76037 1.01522 1.76037 1.01529 1.76037C1.01545 1.76036 1.01568 1.76035 1.016 1.76034C1.01664 1.76033 1.01761 1.7603 1.0189 1.76026C1.02149 1.76018 1.02539 1.76006 1.03059 1.75991C1.04099 1.7596 1.0566 1.75914 1.07734 1.75854C1.11881 1.75733 1.1808 1.75555 1.26269 1.75326C1.42646 1.74868 1.66981 1.74206 1.98777 1.73391L1.96215 0.734237C1.64338 0.742408 1.39925 0.74905 1.23473 0.753652C1.15246 0.755954 1.0901 0.757745 1.04826 0.758962C1.02734 0.75957 1.01155 0.760035 1.00097 0.760349C0.995675 0.760506 0.991686 0.760625 0.989009 0.760705C0.98767 0.760745 0.986659 0.760775 0.985977 0.760796C0.985636 0.760806 0.985378 0.760814 0.985202 0.760819C0.985114 0.760821 0.985046 0.760824 0.984999 0.760825C0.984976 0.760826 0.984958 0.760826 0.984945 0.760827C0.984938 0.760827 0.984932 0.760827 0.984929 0.760827C0.984924 0.760827 0.984921 0.760827 1 1.2606ZM4.01882 1.68617C4.60748 1.67342 5.27552 1.65981 6.01649 1.646L5.99786 0.646178C5.25585 0.660008 4.5868 0.673637 3.99717 0.686403L4.01882 1.68617ZM8.02663 1.61129C8.66407 1.60113 9.33875 1.59117 10.048 1.58167L10.0346 0.581757C9.32449 0.591269 8.64896 0.601246 8.01069 0.611419L8.02663 1.61129ZM12.0511 1.55728C12.6948 1.55022 13.361 1.54366 14.0483 1.53775L14.0397 0.53779C13.3516 0.543704 12.6846 0.550275 12.0401 0.557342L12.0511 1.55728ZM16.0622 1.52283C16.7236 1.51871 17.4012 1.51526 18.0939 1.5126L18.09 0.512603C17.3965 0.515268 16.7181 0.518723 16.056 0.522847L16.0622 1.52283ZM20.0843 1.50728C20.7443 1.5063 21.4161 1.50607 22.0986 1.50669L22.0995 0.506695C21.4162 0.506071 20.7436 0.506299 20.0828 0.507285L20.0843 1.50728ZM24.117 1.511C24.7753 1.51321 25.4424 1.51625 26.1175 1.52018L26.1233 0.520201C25.4474 0.516259 24.7795 0.513219 24.1203 0.511005L24.117 1.511ZM28.1418 1.53457C28.8017 1.54011 29.4682 1.54654 30.1407 1.55392L30.1517 0.553983C29.4783 0.546586 28.8109 0.540149 28.1502 0.534605L28.1418 1.53457ZM32.1575 1.57878C32.8215 1.58786 33.4907 1.59791 34.1642 1.60898L34.1807 0.609114C33.5062 0.598025 32.8361 0.587963 32.1712 0.578869L32.1575 1.57878ZM36.1763 1.64493C36.8428 1.6578 37.5131 1.6717 38.1865 1.68671L38.2088 0.686955C37.5344 0.671929 36.8631 0.658 36.1956 0.645112L36.1763 1.64493ZM40.196 1.73456C40.8641 1.75151 41.5346 1.76957 42.2071 1.7888L42.2357 0.789205C41.5621 0.769945 40.8905 0.751855 40.2214 0.734882L40.196 1.73456ZM44.2156 1.84957C44.8845 1.87095 45.5547 1.89351 46.2259 1.91733L46.2614 0.91796C45.589 0.894101 44.9176 0.871493 44.2476 0.850084L44.2156 1.84957ZM48.2344 1.99228C48.9036 2.01851 49.5732 2.04602 50.2428 2.07487L50.2858 1.0758C49.6149 1.04689 48.944 1.01932 48.2735 0.99305L48.2344 1.99228ZM52.2517 2.16553C52.921 2.19713 53.5896 2.23013 54.2572 2.26456L54.3088 1.26589C53.6397 1.23138 52.9695 1.19831 52.2988 1.16665L52.2517 2.16553ZM56.267 2.37284C56.936 2.41046 57.6033 2.4496 58.2686 2.49029L58.3296 1.49216C57.6627 1.45136 56.9937 1.41213 56.3231 1.37442L56.267 2.37284ZM60.2795 2.61861C60.9481 2.66307 61.6141 2.7092 62.2767 2.75703L62.3487 1.75963C61.6841 1.71165 61.0163 1.6654 60.3458 1.62081L60.2795 2.61861ZM64.2881 2.90838C64.9575 2.96084 65.6228 3.01515 66.2836 3.07136L66.3684 2.07495C65.7053 2.01855 65.0377 1.96407 64.3663 1.91144L64.2881 2.90838ZM68.291 3.24934C68.9618 3.31131 69.6271 3.37536 70.2864 3.44156L70.3863 2.44656C69.7243 2.38009 69.0563 2.31578 68.383 2.25358L68.291 3.24934ZM72.2846 3.65089C72.9579 3.72447 73.624 3.80044 74.282 3.87887L74.4004 2.8859C73.7389 2.80707 73.0697 2.73073 72.3933 2.65681L72.2846 3.65089ZM76.2628 4.12569C76.9397 4.21386 77.6069 4.30485 78.2636 4.39874L78.4051 3.40881C77.7441 3.3143 77.0728 3.22275 76.3919 3.13406L76.2628 4.12569ZM80.2364 4.69474C80.9097 4.80076 81.5702 4.91013 82.2169 5.02296L82.3887 4.03784C81.7363 3.92401 81.0704 3.81374 80.3919 3.70691L80.2364 4.69474ZM84.1944 5.38742C84.8616 5.51739 85.5114 5.65149 86.1424 5.78982L86.3565 4.81302C85.7173 4.67289 85.0599 4.53722 84.3855 4.40587L84.1944 5.38742ZM88.0824 6.2437C88.7555 6.41192 89.4022 6.58574 90.0206 6.76529L90.2994 5.80495C89.6678 5.62156 89.0089 5.4445 88.3249 5.27354L88.0824 6.2437ZM91.9196 7.36592C92.2301 7.47324 92.531 7.58234 92.822 7.69322L93.178 6.75875C92.8767 6.64393 92.566 6.53129 92.2463 6.42079L91.9196 7.36592ZM92.822 7.69322C93.1352 7.81255 93.4458 7.93306 93.754 8.05474L94.1212 7.12462C93.8093 7.00147 93.495 6.87951 93.178 6.75875L92.822 7.69322ZM95.5809 8.80162C96.1956 9.06164 96.8003 9.32638 97.3955 9.5956L97.8076 8.68449C97.205 8.41189 96.5928 8.14386 95.9705 7.88063L95.5809 8.80162ZM99.1916 10.4352C99.7916 10.7249 100.382 11.0192 100.963 11.3178L101.42 10.4284C100.832 10.126 100.234 9.828 99.6264 9.5347L99.1916 10.4352ZM102.71 12.2433C103.293 12.5617 103.867 12.8845 104.432 13.2114L104.933 12.3458C104.36 12.0148 103.779 11.688 103.189 11.3656L102.71 12.2433ZM106.135 14.2243C106.703 14.5713 107.263 14.9224 107.814 15.2774L108.355 14.4365C107.797 14.0774 107.231 13.7221 106.657 13.371L106.135 14.2243ZM109.468 16.3681C110.018 16.7399 110.561 17.1155 111.097 17.4945L111.674 16.6779C111.132 16.295 110.584 15.9154 110.027 15.5395L109.468 16.3681ZM112.703 18.654C113.237 19.0475 113.765 19.4443 114.288 19.844L114.896 19.0495C114.368 18.6465 113.836 18.2461 113.296 17.8489L112.703 18.654ZM115.854 21.0611C116.374 21.4724 116.89 21.8863 117.402 22.3025L118.033 21.5264C117.518 21.1076 116.998 20.6908 116.474 20.2765L115.854 21.0611ZM118.937 23.5645C119.447 23.9887 119.954 24.4149 120.458 24.8427L121.105 24.0798C120.598 23.6503 120.089 23.2222 119.576 22.7957L118.937 23.5645ZM121.971 26.1335C122.474 26.5656 122.976 26.9989 123.477 27.433L124.132 26.6769C123.63 26.2422 123.127 25.808 122.622 25.3748L121.971 26.1335ZM124.982 28.7373C125.482 29.1721 125.984 29.6074 126.486 30.0427L127.141 29.2867C126.639 28.8519 126.138 28.417 125.637 27.9821L124.982 28.7373ZM127.996 31.3451C128.499 31.7775 129.004 32.2096 129.513 32.6409L130.16 31.8784C129.653 31.4487 129.149 31.018 128.647 30.5867L127.996 31.3451ZM131.04 33.9263C131.55 34.3513 132.064 34.7751 132.582 35.1975L133.214 34.4224C132.699 34.0026 132.188 33.5811 131.681 33.1582L131.04 33.9263ZM134.138 36.4496C134.657 36.8617 135.182 37.272 135.713 37.6801L136.322 36.8875C135.796 36.4826 135.275 36.0754 134.76 35.6663L134.138 36.4496ZM137.307 38.8859C137.839 39.2811 138.378 39.6739 138.924 40.064L139.505 39.2503C138.965 38.864 138.431 38.4748 137.904 38.0831L137.307 38.8859ZM140.564 41.2117C141.111 41.5865 141.666 41.9583 142.229 42.3268L142.777 41.4902C142.22 41.1256 141.671 40.7577 141.129 40.3867L140.564 41.2117ZM143.919 43.407C144.479 43.7569 145.048 44.1034 145.627 44.4463L146.137 43.5862C145.565 43.2472 145.002 42.9046 144.448 42.5586L143.919 43.407ZM147.359 45.4471C147.935 45.7714 148.521 46.092 149.116 46.4088L149.586 45.5261C148.998 45.213 148.419 44.8961 147.849 44.5755L147.359 45.4471ZM150.898 47.331C151.489 47.6282 152.089 47.9214 152.7 48.2106L153.128 47.3069C152.525 47.0211 151.931 46.7313 151.347 46.4376L150.898 47.331ZM154.514 49.0453C154.82 49.1819 155.129 49.3175 155.44 49.452L155.837 48.5342C155.529 48.4012 155.224 48.2671 154.922 48.1321L154.514 49.0453ZM155.44 49.452C155.748 49.5854 156.058 49.717 156.369 49.8467L156.754 48.9237C156.447 48.7957 156.141 48.6658 155.837 48.5342L155.44 49.452ZM158.252 50.6031C158.879 50.8459 159.511 51.0816 160.147 51.3104L160.486 50.3694C159.857 50.1432 159.233 49.9103 158.613 49.6705L158.252 50.6031ZM162.061 51.9741C162.7 52.1876 163.343 52.3945 163.988 52.5949L164.285 51.6399C163.646 51.4415 163.01 51.2368 162.378 51.0257L162.061 51.9741ZM165.926 53.1747C166.574 53.3614 167.224 53.5419 167.877 53.7164L168.135 52.7504C167.489 52.5774 166.844 52.3987 166.203 52.2138L165.926 53.1747ZM169.835 54.2207C170.489 54.3828 171.145 54.5391 171.802 54.6899L172.026 53.7153C171.374 53.5657 170.724 53.4107 170.076 53.25L169.835 54.2207ZM173.777 55.1256C174.436 55.2654 175.097 55.3998 175.758 55.5291L175.95 54.5477C175.294 54.4194 174.638 54.286 173.984 54.1473L173.777 55.1256ZM177.744 55.9018C178.408 56.0212 179.072 56.1355 179.736 56.245L179.898 55.2583C179.239 55.1496 178.58 55.0361 177.921 54.9176L177.744 55.9018ZM181.733 56.5602C182.399 56.6607 183.065 56.7565 183.73 56.8478L183.866 55.8571C183.206 55.7664 182.544 55.6712 181.882 55.5714L181.733 56.5602ZM185.735 57.1098C186.406 57.1932 187.075 57.272 187.742 57.3466L187.853 56.3528C187.19 56.2787 186.525 56.2003 185.858 56.1175L185.735 57.1098ZM189.746 57.5587C190.42 57.626 191.092 57.6891 191.761 57.7482L191.849 56.7521C191.184 56.6933 190.516 56.6306 189.845 56.5636L189.746 57.5587ZM193.773 57.9146C194.447 57.9666 195.117 58.0147 195.783 58.0589L195.849 57.0611C195.187 57.0171 194.52 56.9693 193.85 56.9176L193.773 57.9146ZM197.803 58.1826C198.48 58.2205 199.152 58.2547 199.818 58.2853L199.864 57.2863C199.201 57.2559 198.533 57.2219 197.859 57.1842L197.803 58.1826ZM201.829 58.3676C202.511 58.3922 203.186 58.4132 203.854 58.4309L203.881 57.4312C203.216 57.4136 202.544 57.3927 201.865 57.3683L201.829 58.3676ZM205.873 58.4747C206.552 58.4862 207.223 58.4944 207.885 58.4996L207.892 57.4996C207.234 57.4945 206.566 57.4863 205.89 57.4748L205.873 58.4747ZM209.904 58.5062C210.59 58.5053 211.266 58.5013 211.929 58.4944L211.918 57.4945C211.258 57.5013 210.586 57.5053 209.903 57.5062L209.904 58.5062ZM213.948 58.4646C214.636 58.4515 215.308 58.4354 215.964 58.417L215.936 57.4174C215.283 57.4357 214.614 57.4517 213.929 57.4648L213.948 58.4646ZM217.977 58.3515C218.671 58.3259 219.342 58.2979 219.991 58.268L219.945 57.2691C219.299 57.2988 218.631 57.3267 217.94 57.3522L217.977 58.3515ZM222.008 58.166C222.717 58.1268 223.392 58.086 224.029 58.0446L223.965 57.0467C223.33 57.0879 222.659 57.1285 221.953 57.1675L222.008 58.166ZM226.049 57.9033C226.788 57.8477 227.455 57.7932 228.042 57.7423L227.955 56.746C227.372 56.7966 226.709 56.8508 225.974 56.9061L226.049 57.9033ZM230.069 57.5522C230.391 57.5193 230.638 57.4927 230.805 57.4742C230.888 57.4649 230.951 57.4577 230.994 57.4528C231.015 57.4503 231.032 57.4485 231.042 57.4472C231.048 57.4465 231.052 57.446 231.055 57.4457C231.056 57.4455 231.057 57.4454 231.058 57.4453C231.058 57.4453 231.059 57.4452 231.059 57.4452C231.059 57.4452 231.059 57.4452 231.059 57.4452C231.059 57.4452 231.059 57.4452 231.059 57.4452C231.059 57.4452 231.059 57.4452 231.059 57.4452C231.059 57.4452 231.059 57.4452 231 56.9487C230.941 56.4522 230.941 56.4522 230.941 56.4522V56.4522C230.941 56.4522 230.941 56.4522 230.941 56.4522C230.941 56.4522 230.941 56.4523 230.941 56.4523C230.94 56.4523 230.94 56.4523 230.94 56.4523C230.939 56.4524 230.938 56.4525 230.937 56.4527C230.935 56.4529 230.931 56.4534 230.926 56.454C230.916 56.4552 230.9 56.457 230.88 56.4594C230.838 56.4641 230.776 56.4712 230.695 56.4803C230.531 56.4984 230.287 56.5248 229.968 56.5573L230.069 57.5522Z" fill="white"/>
</svg>
