<svg width="198" height="53" viewBox="0 0 198 53" fill="none" xmlns="http://www.w3.org/2000/svg">
<path d="M197.353 49.3534C197.549 49.1583 197.549 48.8417 197.354 48.6463L194.175 45.4615C193.98 45.2661 193.663 45.2658 193.468 45.4609C193.272 45.656 193.272 45.9726 193.467 46.168L196.293 48.9989L193.462 51.8249C193.267 52.0199 193.266 52.3365 193.461 52.532C193.656 52.7274 193.973 52.7277 194.168 52.5326L197.353 49.3534ZM115.57 41.0186L115.722 40.5422L115.57 41.0186ZM54.971 6.10202L54.8491 6.58692L54.971 6.10202ZM1 1.11426C1.0228 1.61374 1.0228 1.61374 1.02279 1.61374C1.02279 1.61374 1.02279 1.61374 1.02279 1.61374C1.02279 1.61374 1.0228 1.61374 1.02281 1.61374C1.02283 1.61374 1.02287 1.61374 1.02294 1.61374C1.02306 1.61373 1.02327 1.61372 1.02356 1.61371C1.02413 1.61368 1.02502 1.61364 1.02624 1.61359C1.02867 1.61348 1.03238 1.61331 1.03736 1.6131C1.04732 1.61266 1.06237 1.61201 1.08243 1.61116C1.12255 1.60947 1.1827 1.60701 1.26225 1.60394C1.42136 1.59781 1.65808 1.58927 1.96743 1.57969L1.93647 0.580165C1.62453 0.589826 1.38528 0.598455 1.22374 0.604681C1.14296 0.607794 1.08162 0.610307 1.04032 0.612047C1.01967 0.612918 1.00403 0.613595 0.993485 0.614058C0.988212 0.61429 0.984212 0.614468 0.981494 0.61459C0.980135 0.61465 0.979096 0.614697 0.97838 0.61473C0.978022 0.614746 0.977744 0.614758 0.977547 0.614767C0.977448 0.614772 0.97737 0.614775 0.977311 0.614778C0.977282 0.614779 0.977258 0.614781 0.977239 0.614781C0.97723 0.614782 0.977219 0.614782 0.977214 0.614783C0.977205 0.614783 0.977197 0.614783 1 1.11426ZM3.91509 1.53265C4.48604 1.52226 5.13431 1.51317 5.85338 1.50715L5.84501 0.507183C5.12254 0.513232 4.47099 0.522372 3.8969 0.532818L3.91509 1.53265ZM7.77925 1.49953C8.39303 1.49973 9.04241 1.50242 9.7248 1.5083L9.73341 0.508334C9.04819 0.502432 8.39604 0.499735 7.77959 0.499525L7.77925 1.49953ZM11.6625 1.53272C12.2857 1.54305 12.9306 1.5561 13.5957 1.5723L13.6201 0.572594C12.9523 0.55633 12.3048 0.543228 11.679 0.532862L11.6625 1.53272ZM15.5318 1.62696C16.1626 1.64721 16.8086 1.67034 17.4684 1.69665L17.5083 0.697445C16.8457 0.67103 16.1972 0.64781 15.5639 0.627475L15.5318 1.62696ZM19.4048 1.78142C20.0393 1.81168 20.6848 1.84493 21.3405 1.88141L21.396 0.882951C20.7377 0.846326 20.0895 0.812943 19.4524 0.782554L19.4048 1.78142ZM23.2756 1.99685C23.9124 2.03742 24.5575 2.08108 25.21 2.12804L25.2818 1.13062C24.6265 1.08346 23.9787 1.03961 23.3392 0.99887L23.2756 1.99685ZM27.1437 2.27534C27.7821 2.32668 28.4265 2.38123 29.0765 2.43917L29.1653 1.44312C28.5124 1.38492 27.865 1.33012 27.2239 1.27856L27.1437 2.27534ZM31.003 2.61949C31.6405 2.68203 32.2824 2.74789 32.9283 2.81725L33.0351 1.82297C32.3861 1.75327 31.7411 1.6871 31.1007 1.62427L31.003 2.61949ZM34.8527 3.0331C35.4907 3.10776 36.1319 3.1859 36.7757 3.26768L36.9017 2.27566C36.2546 2.19345 35.6101 2.11491 34.9689 2.03988L34.8527 3.0331ZM38.6967 3.52167C39.3343 3.60932 39.9739 3.70064 40.6149 3.79577L40.7617 2.8066C40.1171 2.71094 39.474 2.61912 38.8329 2.53099L38.6967 3.52167ZM42.527 4.09035C43.1628 4.19196 43.7994 4.29742 44.4365 4.40688L44.6058 3.42133C43.9648 3.31119 43.3244 3.20509 42.6848 3.10288L42.527 4.09035ZM46.3423 4.74631C46.9763 4.86328 47.6102 4.98434 48.2434 5.10963L48.4375 4.12865C47.8 4.0025 47.1618 3.88064 46.5237 3.76291L46.3423 4.74631ZM50.1388 5.49791C50.77 5.63174 51.4 5.76992 52.0284 5.91259L52.2498 4.93741C51.6166 4.79365 50.9819 4.65445 50.3462 4.51966L50.1388 5.49791ZM53.9116 6.35511C54.2246 6.43121 54.5372 6.50848 54.8491 6.58692L55.093 5.61712C54.7785 5.53802 54.4634 5.46012 54.1478 5.38341L53.9116 6.35511ZM54.8491 6.58692C55.1684 6.66725 55.4851 6.74949 55.799 6.83359L56.0578 5.86765C55.7389 5.78222 55.4173 5.6987 55.093 5.61712L54.8491 6.58692ZM57.6632 7.3639C58.2896 7.55265 58.9051 7.74897 59.5103 7.95249L59.829 7.00465C59.2138 6.79777 58.5883 6.59823 57.9518 6.40643L57.6632 7.3639ZM61.3449 8.60257C61.9585 8.83126 62.5615 9.06745 63.1546 9.31071L63.5341 8.38551C62.9311 8.13818 62.318 7.89804 61.6941 7.66553L61.3449 8.60257ZM64.9389 10.0766C65.5346 10.3438 66.1204 10.6181 66.697 10.8992L67.1351 10.0003C66.5492 9.71465 65.9537 9.43577 65.3481 9.16414L64.9389 10.0766ZM68.4285 11.7768C69.0054 12.0805 69.5733 12.3908 70.133 12.7072L70.6251 11.8366C70.0569 11.5155 69.4803 11.2004 68.8943 10.892L68.4285 11.7768ZM71.8108 13.6873C72.3688 14.0238 72.9192 14.3662 73.4628 14.7138L74.0016 13.8714C73.4509 13.5192 72.8931 13.1722 72.3272 12.831L71.8108 13.6873ZM75.0901 15.7826C75.6303 16.1466 76.1644 16.5154 76.6935 16.8885L77.2698 16.0713C76.7354 15.6944 76.1953 15.3215 75.6488 14.9533L75.0901 15.7826ZM78.2755 18.0268C78.8007 18.4119 79.3216 18.8007 79.8393 19.1926L80.4429 18.3953C79.9216 18.0007 79.3966 17.6088 78.8668 17.2204L78.2755 18.0268ZM81.3881 20.3807C81.9026 20.7802 82.4148 21.1822 82.9256 21.586L83.5458 20.8015C83.0331 20.3962 82.5186 19.9924 82.0013 19.5908L81.3881 20.3807ZM84.456 22.8031C84.9653 23.21 85.4739 23.6181 85.9834 24.0268L86.6091 23.2467C86.0998 22.8381 85.5904 22.4295 85.0803 22.0219L84.456 22.8031ZM87.5118 25.2518C88.0212 25.6591 88.5322 26.0664 89.0457 26.4728L89.6663 25.6888C89.1546 25.2836 88.645 24.8775 88.1364 24.4708L87.5118 25.2518ZM90.5888 27.6848C91.1038 28.0856 91.6223 28.485 92.1451 28.8824L92.7503 28.0863C92.2309 27.6915 91.7154 27.2944 91.203 26.8956L90.5888 27.6848ZM93.7181 30.0608C94.2436 30.4483 94.7742 30.8333 95.311 31.215L95.8905 30.4C95.3589 30.0219 94.8329 29.6404 94.3117 29.256L93.7181 30.0608ZM96.9263 32.3402C97.466 32.7081 98.0124 33.0723 98.5664 33.4322L99.1111 32.5936C98.5637 32.2379 98.0234 31.8779 97.4895 31.5139L96.9263 32.3402ZM100.231 34.4853C100.786 34.8271 101.349 35.1643 101.921 35.4963L102.423 34.6315C101.859 34.304 101.303 33.9712 100.755 33.6338L100.231 34.4853ZM103.639 36.4622C104.211 36.7737 104.792 37.0799 105.383 37.3801L105.836 36.4886C105.254 36.1927 104.681 35.891 104.117 35.5839L103.639 36.4622ZM107.154 38.248C107.743 38.5261 108.342 38.7983 108.952 39.0641L109.352 38.1476C108.752 37.8857 108.162 37.6176 107.581 37.3436L107.154 38.248ZM110.776 39.8277C111.378 40.0695 111.991 40.3051 112.614 40.5341L112.959 39.5955C112.345 39.3699 111.742 39.1378 111.148 38.8996L110.776 39.8277ZM114.472 41.1859C114.785 41.2906 115.1 41.3936 115.418 41.495L115.722 40.5422C115.408 40.4423 115.097 40.3407 114.789 40.2376L114.472 41.1859ZM115.418 41.495C115.721 41.5915 116.029 41.6868 116.341 41.781L116.63 40.8237C116.322 40.7309 116.02 40.6371 115.722 40.5422L115.418 41.495ZM118.24 42.3257C118.86 42.4947 119.495 42.6597 120.143 42.8207L120.384 41.8502C119.743 41.6909 119.116 41.5278 118.503 41.3609L118.24 42.3257ZM122.045 43.2733C122.674 43.417 123.315 43.5573 123.965 43.6943L124.171 42.7157C123.526 42.5798 122.891 42.4407 122.267 42.2984L122.045 43.2733ZM125.894 44.0853C126.525 44.2085 127.165 44.3289 127.812 44.4466L127.991 43.4627C127.348 43.3458 126.712 43.2262 126.086 43.1038L125.894 44.0853ZM129.747 44.7865C130.385 44.8949 131.03 45.0008 131.68 45.1042L131.837 44.1166C131.19 44.0137 130.549 43.9084 129.914 43.8007L129.747 44.7865ZM133.613 45.4019C134.257 45.498 134.905 45.5918 135.558 45.6834L135.697 44.6931C135.047 44.6019 134.401 44.5085 133.76 44.4128L133.613 45.4019ZM137.492 45.9467C138.137 46.0319 138.785 46.115 139.436 46.1962L139.56 45.2038C138.911 45.123 138.265 45.0402 137.623 44.9553L137.492 45.9467ZM141.379 46.4314C142.025 46.5073 142.673 46.5814 143.323 46.6536L143.433 45.6598C142.785 45.5878 142.139 45.5139 141.496 45.4382L141.379 46.4314ZM145.271 46.8641C145.918 46.9321 146.566 46.9983 147.216 47.0629L147.314 46.0678C146.667 46.0034 146.02 45.9374 145.375 45.8696L145.271 46.8641ZM149.164 47.2512C149.813 47.3122 150.463 47.3716 151.112 47.4294L151.201 46.4333C150.553 46.3757 149.905 46.3165 149.258 46.2556L149.164 47.2512ZM153.062 47.5981C153.712 47.6528 154.362 47.706 155.011 47.7576L155.09 46.7608C154.443 46.7093 153.795 46.6562 153.146 46.6016L153.062 47.5981ZM156.963 47.9088C157.614 47.9578 158.263 48.0053 158.909 48.0513L158.98 47.0538C158.335 47.0079 157.687 46.9605 157.038 46.9116L156.963 47.9088ZM160.866 48.1866C161.518 48.2304 162.168 48.2728 162.815 48.3137L162.878 47.3158C162.233 47.2749 161.584 47.2326 160.933 47.1888L160.866 48.1866ZM164.768 48.434C165.424 48.4731 166.076 48.5109 166.723 48.5472L166.779 47.5488C166.133 47.5125 165.483 47.4748 164.828 47.4357L164.768 48.434ZM168.667 48.6531C169.328 48.688 169.982 48.7214 170.63 48.7534L170.68 47.7546C170.033 47.7226 169.379 47.6893 168.72 47.6545L168.667 48.6531ZM172.581 48.8467C173.239 48.877 173.889 48.906 174.53 48.9337L174.573 47.9346C173.933 47.907 173.284 47.8781 172.627 47.8477L172.581 48.8467ZM176.493 49.0151C177.154 49.0415 177.804 49.0665 178.444 49.0901L178.48 48.0908C177.842 48.0672 177.193 48.0423 176.533 48.0159L176.493 49.0151ZM180.388 49.159C181.058 49.1817 181.714 49.203 182.355 49.2228L182.386 48.2232C181.746 48.2035 181.091 48.1823 180.422 48.1595L180.388 49.159ZM184.314 49.2804C184.986 49.2992 185.637 49.3164 186.267 49.3321L186.292 48.3324C185.663 48.3167 185.013 48.2996 184.342 48.2808L184.314 49.2804ZM188.218 49.3778C188.903 49.3928 189.556 49.4059 190.172 49.4175L190.191 48.4176C189.575 48.4061 188.924 48.393 188.24 48.378L188.218 49.3778ZM192.135 49.4509C192.862 49.462 193.517 49.4706 194.094 49.4772L194.105 48.4773C193.53 48.4707 192.876 48.4621 192.151 48.451L192.135 49.4509ZM196.056 49.4952C196.364 49.4972 196.599 49.4983 196.758 49.4989C196.838 49.4992 196.898 49.4993 196.938 49.4994C196.958 49.4994 196.974 49.4995 196.984 49.4995C196.989 49.4995 196.993 49.4995 196.996 49.4995C196.997 49.4995 196.998 49.4995 196.999 49.4995C196.999 49.4995 196.999 49.4995 196.999 49.4995C196.999 49.4995 196.999 49.4995 196.999 49.4995C197 49.4995 197 49.4995 197 49.4995H197C197 49.4995 197 49.4995 197 48.9995C197 48.4995 197 48.4995 197 48.4995C197 48.4995 197 48.4995 197 48.4995C197 48.4995 197 48.4995 197 48.4995C197 48.4995 197 48.4995 197 48.4995C197 48.4995 197 48.4995 197 48.4995C196.999 48.4995 196.998 48.4995 196.997 48.4995C196.994 48.4995 196.991 48.4995 196.986 48.4995C196.976 48.4995 196.96 48.4995 196.94 48.4994C196.9 48.4993 196.841 48.4992 196.762 48.4989C196.604 48.4983 196.369 48.4972 196.062 48.4952L196.056 49.4952Z" fill="white"/>
</svg>
