<svg width="205" height="45" viewBox="0 0 205 45" fill="none" xmlns="http://www.w3.org/2000/svg">
<path d="M0.705558 40.8612C0.504613 41.0506 0.495274 41.3671 0.684683 41.568L3.77134 44.8426C3.96075 45.0435 4.27719 45.0528 4.47814 44.8634C4.67908 44.674 4.68842 44.3576 4.49901 44.1566L1.75532 41.2459L4.66602 38.5022C4.86695 38.3128 4.8763 37.9964 4.68689 37.7954C4.49749 37.5945 4.18103 37.5852 3.98009 37.7746L0.705558 40.8612ZM70.7795 35.7746L70.6828 35.2841L70.7795 35.7746ZM138.109 6.5146L138.245 6.99569L138.109 6.5146ZM204.5 1.48975C204.493 0.989797 204.493 0.989797 204.493 0.989797C204.493 0.989797 204.493 0.989797 204.493 0.989797C204.493 0.989797 204.493 0.989797 204.493 0.989798C204.493 0.989798 204.493 0.989799 204.493 0.9898C204.492 0.989803 204.492 0.989806 204.492 0.989811C204.491 0.989821 204.49 0.989835 204.489 0.989854C204.486 0.989891 204.482 0.989948 204.477 0.990023C204.467 0.990174 204.451 0.990402 204.431 0.990708C204.39 0.991322 204.329 0.992253 204.249 0.993525C204.089 0.996069 203.851 0.999975 203.542 1.00543L203.56 2.00527C203.868 1.99983 204.105 1.99593 204.265 1.9934C204.345 1.99213 204.406 1.99121 204.446 1.9906C204.466 1.99029 204.482 1.99007 204.492 1.98992C204.497 1.98984 204.501 1.98979 204.503 1.98975C204.505 1.98973 204.506 1.98972 204.506 1.98971C204.506 1.9897 204.507 1.9897 204.507 1.9897C204.507 1.9897 204.507 1.9897 204.507 1.9897C204.507 1.9897 204.507 1.9897 204.507 1.9897C204.507 1.9897 204.507 1.9897 204.507 1.9897C204.507 1.9897 204.507 1.9897 204.5 1.48975ZM201.576 1.04337C200.991 1.0555 200.326 1.06996 199.591 1.08701L199.614 2.08674C200.349 2.06971 201.012 2.05527 201.596 2.04316L201.576 1.04337ZM197.641 1.13437C197.021 1.1501 196.367 1.16733 195.68 1.18618L195.708 2.1858C196.393 2.16698 197.047 2.14976 197.667 2.13405L197.641 1.13437ZM193.717 1.24215C193.081 1.26091 192.425 1.28092 191.75 1.30224L191.782 2.30174C192.456 2.28044 193.112 2.26045 193.746 2.24172L193.717 1.24215ZM189.782 1.36648C189.143 1.38799 188.49 1.41062 187.825 1.43442L187.861 2.43378C188.525 2.41001 189.177 2.3874 189.815 2.36592L189.782 1.36648ZM185.869 1.50654C185.224 1.53101 184.57 1.55655 183.907 1.58319L183.947 2.58238C184.609 2.55577 185.263 2.53026 185.907 2.50582L185.869 1.50654ZM181.941 1.66449C181.293 1.69204 180.639 1.72064 179.979 1.75031L180.023 2.7493C180.683 2.71966 181.336 2.6911 181.983 2.66359L181.941 1.66449ZM178.021 1.84077C177.371 1.87164 176.717 1.90357 176.059 1.93657L176.109 2.93532C176.766 2.90236 177.42 2.87048 178.069 2.83964L178.021 1.84077ZM174.095 2.03788C173.445 2.07239 172.792 2.10796 172.137 2.14464L172.193 3.14307C172.847 3.10645 173.499 3.07093 174.148 3.03648L174.095 2.03788ZM170.176 2.25764C169.523 2.29635 168.869 2.33618 168.216 2.37717L168.279 3.3752C168.931 3.3343 169.583 3.29454 170.236 3.25589L170.176 2.25764ZM166.257 2.50367C165.601 2.54722 164.947 2.59196 164.296 2.63792L164.366 3.63544C165.016 3.58958 165.669 3.54494 166.323 3.50147L166.257 2.50367ZM162.337 2.7803C161.682 2.82943 161.03 2.87984 160.382 2.93157L160.461 3.9284C161.107 3.8768 161.758 3.82652 162.412 3.77751L162.337 2.7803ZM158.419 3.09345C157.76 3.14961 157.107 3.2072 156.461 3.26626L156.552 4.26212C157.196 4.20324 157.847 4.14583 158.504 4.08984L158.419 3.09345ZM154.509 3.45109C153.848 3.5159 153.196 3.58236 152.554 3.6505L152.659 4.64493C153.299 4.57707 153.949 4.51088 154.606 4.4463L154.509 3.45109ZM150.593 3.86723C149.929 3.94382 149.276 4.02238 148.637 4.10298L148.762 5.09512C149.398 5.015 150.046 4.93686 150.708 4.86066L150.593 3.86723ZM146.687 4.36146C146.019 4.45445 145.37 4.54995 144.74 4.64804L144.894 5.63612C145.518 5.53894 146.162 5.44421 146.825 5.35189L146.687 4.36146ZM142.796 4.97071C142.118 5.09081 141.469 5.21454 140.853 5.34204L141.055 6.32133C141.661 6.19599 142.301 6.07403 142.97 5.95537L142.796 4.97071ZM138.913 5.78299C138.587 5.86497 138.273 5.94845 137.973 6.0335L138.245 6.99569C138.535 6.91359 138.839 6.83263 139.157 6.75282L138.913 5.78299ZM137.973 6.0335C137.635 6.12921 137.3 6.22551 136.968 6.32238L137.248 7.2823C137.577 7.1862 137.91 7.09065 138.245 6.99569L137.973 6.0335ZM135.01 6.9116C134.34 7.11938 133.683 7.32956 133.039 7.54199L133.352 8.49173C133.991 8.28116 134.642 8.07277 135.306 7.86672L135.01 6.9116ZM131.086 8.20541C130.428 8.43556 129.784 8.66808 129.153 8.90278L129.501 9.84017C130.127 9.60768 130.765 9.37731 131.416 9.14925L131.086 8.20541ZM127.236 9.636C126.585 9.89253 125.948 10.1514 125.323 10.4123L125.708 11.3351C126.327 11.0767 126.958 10.8204 127.603 10.5664L127.236 9.636ZM123.426 11.2268C122.788 11.5088 122.163 11.7928 121.55 12.0787L121.972 12.985C122.579 12.7019 123.198 12.4207 123.83 12.1415L123.426 11.2268ZM119.692 12.9678C119.067 13.2745 118.455 13.583 117.853 13.893L118.311 14.7819C118.907 14.4749 119.514 14.1693 120.133 13.8654L119.692 12.9678ZM116.032 14.8522C115.421 15.1813 114.82 15.5116 114.229 15.8426L114.717 16.7153C115.304 16.3867 115.9 16.059 116.506 15.7328L116.032 14.8522ZM112.441 16.8602C111.843 17.2064 111.252 17.5531 110.668 17.8999L111.179 18.7597C111.76 18.4146 112.347 18.0699 112.942 17.7258L112.441 16.8602ZM108.907 18.9561C108.318 19.312 107.735 19.6676 107.154 20.0223L107.675 20.8757C108.255 20.5214 108.838 20.1666 109.424 19.8118L108.907 18.9561ZM105.405 21.0916C104.822 21.4481 104.24 21.8033 103.656 22.1567L104.175 23.0119C104.759 22.6575 105.343 22.3016 105.927 21.9448L105.405 21.0916ZM101.903 23.2105C101.319 23.558 100.733 23.9032 100.141 24.2459L100.643 25.1112C101.238 24.7662 101.828 24.4189 102.415 24.0698L101.903 23.2105ZM98.367 25.2563C97.7775 25.5858 97.1815 25.9124 96.5772 26.2357L97.0489 27.1174C97.6591 26.791 98.2605 26.4614 98.8549 26.1292L98.367 25.2563ZM94.7695 27.179C94.1705 27.4835 93.5621 27.7846 92.9426 28.082L93.3754 28.9835C94.002 28.6827 94.6172 28.3782 95.2227 28.0704L94.7695 27.179ZM91.0958 28.9417C90.4854 29.2169 89.8636 29.4885 89.2289 29.7561L89.6174 30.6776C90.2598 30.4067 90.8892 30.1318 91.5068 29.8533L91.0958 28.9417ZM87.342 30.5243C86.7195 30.7688 86.0843 31.0095 85.4354 31.2462L85.778 32.1857C86.4347 31.9461 87.0775 31.7025 87.7076 31.4551L87.342 30.5243ZM83.5088 31.9227C82.8747 32.1369 82.2275 32.3474 81.5662 32.5538L81.8642 33.5084C82.5329 33.2996 83.1874 33.0868 83.8289 32.8701L83.5088 31.9227ZM79.6211 33.1375C78.9806 33.3221 78.327 33.5031 77.6597 33.6803L77.9164 34.6468C78.5904 34.4678 79.2507 34.285 79.8981 34.0984L79.6211 33.1375ZM75.6796 34.1849C75.0267 34.3444 74.3609 34.5005 73.6817 34.6529L73.9006 35.6286C74.5859 35.4749 75.2578 35.3174 75.9169 35.1563L75.6796 34.1849ZM71.7002 35.0791C71.3643 35.1483 71.0252 35.2166 70.6828 35.2841L70.8762 36.2652C71.2213 36.1972 71.5632 36.1283 71.902 36.0585L71.7002 35.0791ZM70.6828 35.2841C70.3658 35.3466 70.0484 35.4083 69.7308 35.4694L69.9197 36.4514C70.2388 36.3901 70.5576 36.328 70.8762 36.2652L70.6828 35.2841ZM67.8217 35.8278C67.1853 35.9444 66.5479 36.0583 65.91 36.1695L66.0818 37.1546C66.7225 37.0429 67.3626 36.9285 68.0019 36.8114L67.8217 35.8278ZM63.9949 36.4954C63.356 36.6015 62.7167 36.705 62.0774 36.806L62.2335 37.7938C62.8753 37.6924 63.5171 37.5885 64.1587 37.4819L63.9949 36.4954ZM60.1568 37.102C59.5162 37.1983 58.8758 37.2921 58.236 37.3836L58.3774 38.3735C59.0196 38.2817 59.6624 38.1876 60.3054 38.0909L60.1568 37.102ZM56.3098 37.6518C55.6668 37.7391 55.0248 37.824 54.3838 37.9066L54.5116 38.8984C55.1547 38.8155 55.7991 38.7303 56.4443 38.6427L56.3098 37.6518ZM52.4564 38.1485C51.811 38.2273 51.167 38.3039 50.5248 38.3782L50.6397 39.3716C51.284 39.297 51.9301 39.2202 52.5777 39.1411L52.4564 38.1485ZM48.596 38.5955C47.949 38.6663 47.3041 38.735 46.6616 38.8014L46.7646 39.7961C47.409 39.7294 48.0559 39.6606 48.7049 39.5895L48.596 38.5955ZM44.7267 38.9959C44.0804 39.059 43.437 39.1199 42.7967 39.1788L42.8882 40.1746C43.5304 40.1156 44.1757 40.0545 44.8238 39.9912L44.7267 38.9959ZM40.8556 39.3517C40.206 39.4078 39.5601 39.4617 38.9182 39.5136L38.9988 40.5104C39.6425 40.4583 40.2902 40.4042 40.9416 40.348L40.8556 39.3517ZM36.9868 39.6647C36.3335 39.7141 35.6848 39.7614 35.0412 39.8067L35.1114 40.8042C35.7567 40.7588 36.4071 40.7114 37.0621 40.6619L36.9868 39.6647ZM33.1009 39.9383C32.4504 39.9807 31.8057 40.0211 31.1671 40.0596L31.2273 41.0578C31.8675 41.0192 32.5139 40.9787 33.166 40.9361L33.1009 39.9383ZM29.2219 40.1721C28.5662 40.2084 27.9177 40.2426 27.2769 40.275L27.3274 41.2737C27.9697 41.2413 28.6198 41.2069 29.2772 41.1706L29.2219 40.1721ZM25.3373 40.3683C24.6834 40.3981 24.0384 40.426 23.403 40.452L23.4439 41.4512C24.0809 41.4251 24.7274 41.3972 25.3829 41.3672L25.3373 40.3683ZM21.4543 40.5272C20.7932 40.5511 20.1438 40.573 19.5066 40.5931L19.5381 41.5926C20.1768 41.5725 20.8278 41.5505 21.4905 41.5265L21.4543 40.5272ZM17.5616 40.6497C16.8981 40.6674 16.25 40.6832 15.6181 40.6971L15.6401 41.6968C16.2735 41.6829 16.9232 41.6671 17.5883 41.6493L17.5616 40.6497ZM13.6748 40.7351C13.0045 40.7466 12.3559 40.7561 11.7303 40.7637L11.7426 41.7636C12.3698 41.756 13.02 41.7465 13.692 41.735L13.6748 40.7351ZM9.78454 40.7826C9.10164 40.7875 8.45311 40.7902 7.84104 40.7913L7.84282 41.7913C8.45664 41.7902 9.10696 41.7875 9.79168 41.7826L9.78454 40.7826ZM5.91371 40.7893C5.18369 40.7865 4.52806 40.7814 3.95238 40.7753L3.9418 41.7752C4.51962 41.7813 5.17746 41.7864 5.90977 41.7893L5.91371 40.7893ZM2.02574 40.7472C1.70993 40.7411 1.46891 40.7356 1.30703 40.7317C1.2261 40.7297 1.16496 40.7281 1.12416 40.727C1.10375 40.7264 1.08844 40.726 1.07826 40.7257C1.07317 40.7256 1.06939 40.7255 1.06689 40.7254C1.06564 40.7253 1.06471 40.7253 1.06411 40.7253C1.0638 40.7253 1.06358 40.7253 1.06345 40.7253C1.06338 40.7253 1.06333 40.7253 1.06331 40.7253C1.06329 40.7253 1.06328 40.7253 1.06327 40.7253C1.06327 40.7253 1.06328 40.7253 1.04852 41.2251C1.03376 41.7248 1.03376 41.7248 1.03378 41.7248C1.03378 41.7248 1.03378 41.7248 1.03379 41.7248C1.03381 41.7248 1.03383 41.7248 1.03386 41.7248C1.03391 41.7248 1.03398 41.7248 1.03408 41.7248C1.03427 41.7249 1.03453 41.7249 1.03489 41.7249C1.03559 41.7249 1.03662 41.7249 1.03797 41.725C1.04068 41.725 1.04468 41.7252 1.04997 41.7253C1.06055 41.7256 1.07629 41.726 1.09711 41.7266C1.13876 41.7277 1.20075 41.7294 1.28255 41.7314C1.44613 41.7354 1.68893 41.7409 2.00654 41.747L2.02574 40.7472Z" fill="white"/>
</svg>
