<svg width="56" height="56" viewBox="0 0 56 56" fill="none" xmlns="http://www.w3.org/2000/svg">
<path d="M5.09088 20.3642H15.2725C18.0841 20.3642 20.3633 18.0849 20.3634 15.2733V5.09175C20.3634 2.28015 18.0842 0.000986756 15.2726 0.00087738H15.2725H5.09088C2.27927 0.00087738 0 2.28004 0 5.09164V5.09175V15.2734C0 18.0849 2.27927 20.3642 5.09088 20.3642ZM5.09088 5.09175H15.2725V15.2734H5.09088V5.09175Z" fill="#091C3A"/>
<path d="M15.2724 35.6368H5.09088C2.27927 35.6368 0 37.916 0 40.7276V40.7277V50.9093C0 53.7209 2.27927 56.0001 5.09088 56.0002H15.2725C18.0841 56.0002 20.3633 53.7209 20.3634 50.9093V40.7277C20.3633 37.9162 18.0841 35.6368 15.2724 35.6368C15.2724 35.6368 15.2725 35.6368 15.2724 35.6368ZM15.2724 50.9093H5.09088V40.7277H15.2725V50.9093H15.2724Z" fill="#091C3A"/>
<path d="M50.908 35.6368H40.7264C37.9148 35.6368 35.6356 37.916 35.6355 40.7276V40.7277V50.9093C35.6355 53.7209 37.9148 56.0001 40.7264 56.0002H50.908C53.7196 56.0002 55.9988 53.7209 55.9989 50.9093V40.7277C55.9989 37.9162 53.7196 35.6368 50.908 35.6368ZM50.908 50.9093H40.7264V40.7277H50.908V50.9093Z" fill="#091C3A"/>
<path d="M52.1804 7.63736C54.289 7.63736 55.9985 5.92795 55.9985 3.81929C55.9985 1.71062 54.289 0.00120926 52.1804 0.00120926C50.0717 0.00120926 48.3623 1.71062 48.3623 3.81929C48.3623 5.92795 50.0717 7.63736 52.1804 7.63736Z" fill="#091C3A"/>
<path d="M52.1804 20.3648C54.289 20.3648 55.9985 18.6554 55.9985 16.5468C55.9985 14.4381 54.289 12.7287 52.1804 12.7287C50.0717 12.7287 48.3623 14.4381 48.3623 16.5468C48.3623 18.6554 50.0717 20.3648 52.1804 20.3648Z" fill="#091C3A"/>
<path d="M39.4543 7.63736C41.563 7.63736 43.2724 5.92795 43.2724 3.81929C43.2724 1.71062 41.563 0.00120926 39.4543 0.00120926C37.3456 0.00120926 35.6362 1.71062 35.6362 3.81929C35.6362 5.92795 37.3456 7.63736 39.4543 7.63736Z" fill="#091C3A"/>
<path d="M27.9996 20.3643C29.4054 20.3643 30.545 19.2247 30.545 17.8189V15.2735C30.545 13.8677 31.6845 12.7281 33.0903 12.7281H33.0904C34.4962 12.7281 35.6358 11.5885 35.6358 10.1827C35.6358 8.77694 34.4962 7.63735 33.0904 7.63735C31.6846 7.63735 30.545 6.49777 30.545 5.09197V2.54648C30.5456 1.14057 29.4064 0.000547074 28.0006 1.96825e-07C26.5948 -0.00054668 25.4548 1.1386 25.4541 2.5444C25.4541 2.54495 25.4541 2.54571 25.4541 2.54626V17.8188C25.4541 19.2247 26.5938 20.3643 27.9996 20.3643Z" fill="#091C3A"/>
<path d="M27.9996 25.4552C26.5938 25.4552 25.4542 24.3156 25.4542 22.9098C25.4533 21.504 24.3131 20.3651 22.9073 20.3659C21.5027 20.3668 20.3643 21.5052 20.3634 22.9098C20.3634 24.3156 19.2238 25.4552 17.818 25.4552H2.5456C1.13958 25.4552 0 26.5947 0 28.0005C0 29.4063 1.13958 30.5459 2.54538 30.5459H17.8179C19.2237 30.5459 20.3633 31.6854 20.3633 33.0912V33.0913C20.3633 34.4971 21.5029 35.6367 22.9087 35.6367C24.3145 35.6367 25.4541 36.7762 25.4541 38.182V38.1821V43.2729C25.4541 44.6788 26.5936 45.8183 27.9994 45.8183C29.4052 45.8183 30.545 44.6789 30.545 43.2731V28.0005C30.545 26.5947 29.4056 25.4552 27.9998 25.4552C27.9996 25.4552 27.9996 25.4552 27.9996 25.4552Z" fill="#091C3A"/>
<path d="M53.4533 25.4551H45.817C44.4112 25.4551 43.2717 24.3156 43.2717 22.9098V16.5463C43.2717 14.4377 41.5622 12.7282 39.4536 12.7282C37.3449 12.7282 35.6355 14.4377 35.6355 16.5463V17.8191C35.6355 19.2249 34.4959 20.3645 33.0901 20.3645C31.6843 20.3636 30.5441 21.5025 30.5432 22.9083C30.5423 24.3141 31.6813 25.4544 33.0871 25.4553C33.0882 25.4553 33.0891 25.4553 33.0901 25.4553C34.4959 25.4553 35.6355 26.5947 35.6355 28.0005V28.0006C35.6355 29.4064 36.7751 30.546 38.1809 30.546H53.4534C54.8592 30.5466 55.9992 29.4074 55.9999 28.0016C56.0004 26.5958 54.8613 25.4558 53.4555 25.4551C53.4546 25.4551 53.4539 25.4551 53.4533 25.4551Z" fill="#091C3A"/>
<path d="M27.9997 56.0003C29.4055 56.0003 30.5451 54.8607 30.5451 53.4549C30.5451 52.0491 29.4055 50.9095 27.9997 50.9095C26.594 50.9095 25.4543 52.0491 25.4543 53.4549C25.4543 54.8607 26.594 56.0003 27.9997 56.0003Z" fill="#091C3A"/>
</svg>
