<svg width="30" height="30" viewBox="0 0 30 30" fill="none" xmlns="http://www.w3.org/2000/svg">
<path d="M12.4632 15.2884L19.9999 11.25L14.3434 16.6856L14.0772 19.1723L15.6177 17.6816L20.6494 21.7748L23.1837 8.21663L9.08667 14.082L12.4632 15.2884Z" fill="white"/>
<path d="M27.4999 0H2.50012C1.12538 0 0 1.12538 0 2.50012V27.4999C0 28.8746 1.12538 30 2.50012 30H27.4999C28.8746 30 30 28.8746 30 27.4999V2.50012C30 1.12538 28.8746 0 27.4999 0ZM22.6931 24.453C22.6931 24.453 22.1951 25.7738 20.8256 25.1404L15.7616 21.0217L12.5145 24.1639C12.5145 24.1639 12.2606 24.3679 11.9824 24.2396C11.9824 24.2396 11.7431 24.2153 11.4431 23.2144C11.145 22.2097 9.62663 16.9301 9.62663 16.9301L4.59975 15.1346C4.59975 15.1346 3.828 14.844 3.75488 14.2103C3.6795 13.5769 4.62638 13.2326 4.62638 13.2326L24.6067 4.91738C24.6067 4.91738 26.25 4.152 26.25 5.41913L22.6931 24.453Z" fill="white"/>
</svg>
