<svg width="30" height="30" viewBox="0 0 30 30" fill="none" xmlns="http://www.w3.org/2000/svg">
<path d="M15.0136 6.27482C10.2162 6.27482 6.31323 10.1778 6.31323 14.9751C6.31323 16.6467 6.78832 18.27 7.687 19.6694L7.90299 20.0057L7.05676 23.0113L10.1664 22.2109L10.4871 22.4067C11.8467 23.2367 13.412 23.6755 15.0136 23.6755C19.8109 23.6755 23.7138 19.7725 23.7138 14.9751C23.7138 10.1778 19.8109 6.27482 15.0136 6.27482ZM20.3487 17.6492L20.2401 18.1562C20.1177 18.7282 19.778 19.2342 19.2851 19.5495C18.6628 19.9476 17.8562 20.143 16.831 19.8531C13.6493 18.9534 11.85 16.8469 10.8845 15.5303C9.91904 14.2138 9.54606 12.8972 9.78739 11.822C9.94926 11.101 10.4763 10.5477 10.8059 10.2614C10.9674 10.1212 11.1768 10.0498 11.3903 10.0615L12.0702 10.0985C12.2041 10.1058 12.3222 10.1885 12.3749 10.3118L13.3653 12.629C13.4182 12.7529 13.3959 12.896 13.3079 12.9978L12.4458 13.9951C12.3759 14.0759 12.3637 14.1911 12.4129 14.286C13.5484 16.4731 15.6176 17.3397 16.2353 17.5568C16.3406 17.5938 16.4572 17.5588 16.5254 17.4704L17.4275 16.3011C17.5278 16.171 17.7047 16.1275 17.8539 16.1963L20.1516 17.2554C20.3014 17.3245 20.3832 17.488 20.3487 17.6492Z" fill="white"/>
<path d="M3 0C1.34315 0 0 1.34315 0 3V27C0 28.6569 1.34315 30 3 30H27C28.6569 30 30 28.6569 30 27V3C30 1.34315 28.6569 0 27 0H3ZM15.0135 25.4528C13.2133 25.4528 11.4506 24.992 9.89116 24.1171L4.50884 25.5025L5.97833 20.2834C5.03336 18.6781 4.53583 16.8515 4.53583 14.9752C4.53583 9.19773 9.23611 4.49746 15.0135 4.49746C20.7909 4.49746 25.4912 9.19773 25.4912 14.9752C25.4912 20.7526 20.7909 25.4528 15.0135 25.4528Z" fill="white"/>
</svg>
